<svg xmlns="http://www.w3.org/2000/svg" xmlns:xlink="http://www.w3.org/1999/xlink" viewBox="0 0 445.8 354.54"><defs><style>.cls-1{fill:none;}.cls-2{fill:#f7f4e2;}.cls-3{opacity:0.06;fill:url(#New_Pattern_2);}</style><pattern id="New_Pattern_2" data-name="New Pattern 2" width="274" height="273" patternTransform="translate(-263.13 12.52)" patternUnits="userSpaceOnUse" viewBox="0 0 274 273"><rect class="cls-1" width="274" height="273"/><path class="cls-2" d="M209.07.45C206.66,6,207.54,13,207.57,18.84c0,6.45-1,14.51,1,20.64.48,1.51,2.87,1.7,3.25,0,1.43-6.31-.13-14.16-.38-20.64-.24-5.91.51-12.89-1.94-18.39a.23.23,0,0,0-.4,0Z"/><path class="cls-2" d="M218.73,2.46A97.94,97.94,0,0,0,217.38,20c0,5.87-.27,12.27,1.39,18a1.8,1.8,0,0,0,3.44,0c1.35-5.77.67-12.09.17-17.95a82,82,0,0,0-3.2-17.52c-.06-.2-.4-.24-.45,0Z"/><path class="cls-2" d="M230.86,3.72c-1.34,5.53-.89,11.76-1.09,17.44s-.92,11.8-.13,17.48c.13.92,1.49.77,1.72,0,1.63-5.49,1.56-11.78,1.69-17.48s.59-12-.92-17.44a.66.66,0,0,0-1.27,0Z"/><path class="cls-2" d="M239.7,4.46c-1.24,6.45.29,13.73.81,20.22.43,5.35.46,11.73,3.7,16.22a1.46,1.46,0,0,0,2.66-1.12,174.28,174.28,0,0,1-3.07-18c-.56-5.68-.41-12-2.47-17.37-.27-.69-1.46-.9-1.63,0Z"/><path class="cls-2" d="M209.4,52.47c6.8,0,13.67.24,20.49.48,5.43.18,12.55.78,17.31-2.25a1.14,1.14,0,0,0-.57-2.1c-3.51-.13-6.95.82-10.48,1-3.28.14-6.57,0-9.86,0-6.18-.11-11.33-.09-17,2.4-.26.11-.12.52.14.52Z"/><path class="cls-2" d="M241.53,49.42a143.42,143.42,0,0,0,.28,33.77c.33,2.49,4.16,2.66,4,0C245.29,72,244.27,60.6,243,49.42a.75.75,0,0,0-1.5,0Z"/><path class="cls-2" d="M209,52.56c-.78,11.49-1.21,23-1.12,34.52a1.73,1.73,0,0,0,3.46,0c.09-11.53-.34-23-1.12-34.52a.61.61,0,0,0-1.22,0Z"/><path class="cls-2" d="M211.18,86c6.26-.2,12.41-1.53,18.69-1.75,5-.17,11.2,1.25,15.86-.72,1.11-.48.83-2,0-2.59-4.58-3-12.5-1.76-17.75-1.31-6,.51-12,1.22-17.53,3.66-1.35.6-.64,2.75.73,2.71Z"/><path class="cls-2" d="M211.65,66.22c4.24,2.28,9.64,1.77,14.32,1.69,5.2-.1,11.36.37,16.29-1.39,1.44-.52,1.84-3,0-3.35-5.24-.85-11,.32-16.29.47-4.69.13-9.95-.49-14.32,1.45a.66.66,0,0,0,0,1.13Z"/><path class="cls-2" d="M210.06,99a2.89,2.89,0,0,0,.23,1.78,2,2,0,0,0,2.57.86,2.14,2.14,0,0,0,1.54-2,2.65,2.65,0,0,0-.91-1.94,4.54,4.54,0,0,0-1.16-.78,3.87,3.87,0,0,0-3.43,0,3.2,3.2,0,0,0-1.59,3.49,3,3,0,0,0,2.8,2.31,2.94,2.94,0,0,0,2.84-2.09,2.66,2.66,0,0,0-1.51-3.14A2.38,2.38,0,0,0,208.25,99a2.14,2.14,0,0,0,1.58,2.66,1.49,1.49,0,0,0,1.87-1.42c0-.36-.12.33,0,0l-.83,1.08a1.67,1.67,0,0,1-1.58,0l.13.1a1.77,1.77,0,0,1,.83-3.24c1,.09,1.6.54,1.7,1.35.09.49.13.61.12.34s0-.15-.05.31a1.6,1.6,0,0,1-.73,1c-.38.13-.44.15-.2.08-.4,0-.47.06-.22.06l-.35,0c.24.07.2,0-.12-.08a3.67,3.67,0,0,1,.51.31,2.49,2.49,0,0,0,1.38.34l-2-1.54c.1.33,0-.47,0-.13,0-.19.08-.31,0-.06l.62-.8c.15-.07.16-.07,0,0,.19,0,.24,0,.13,0s-.3-.22-.36-.29a.37.37,0,0,0-.62.17Z"/><path class="cls-2" d="M223.27,98.65a1.94,1.94,0,0,0-3-.3,2.4,2.4,0,0,0,.59,3.73,2.83,2.83,0,0,0,3.72-1,2.91,2.91,0,1,0-4,.9,2.72,2.72,0,0,0,3.39-.31,2.78,2.78,0,0,0,.48-3.08,2.62,2.62,0,0,0-3.11-1.53,2.41,2.41,0,0,0-1.73,3,1.2,1.2,0,0,0,.81.81,1.11,1.11,0,0,0,1.12-.3c.06-.07.35-.46.22-.27s0,.06,0,0l-.07.06a1.24,1.24,0,0,0,.2-.1l.15-.08c.07,0,.06,0,0,0s-.12,0,0,0,.06,0-.16,0c.22,0,0,0-.1,0s-.27-.13-.17-.07.05,0-.06,0-.33-.43-.21-.2l-.1-.25c0,.14,0,.12,0,0s0-.07,0,0c0,.22.1-.45,0-.17l.12-.27c-.07.12-.06.1,0,0a1.25,1.25,0,0,1,1.27-.42l.3.13c-.12-.07-.1-.05.05.06s.17.13.1.06-.06,0,.16.23c-.14-.23.08.22.09.24,0-.15,0-.11,0,.11a.7.7,0,0,1,0,.38,1.53,1.53,0,0,1-1.05,1.25s-.58,0-.3,0-.48-.09-.24,0,.06,0-.3-.12l-.28-.22a1.47,1.47,0,0,1-.27-1.54c0-.09.43-.6.21-.39l.26-.21c.33-.12.42-.16.27-.11s-.06,0,.13,0a1,1,0,0,1,.51,0,1.54,1.54,0,0,1,.95.93c0,.08.06.48,0,.17,0-.1-.13-.5-.08-.58-.05.09,0,.41,0,.55a.61.61,0,0,1-.23.34q-.26.21-.09.12a1,1,0,0,0,.37-1.41Z"/><path class="cls-2" d="M232.4,98.77A1.49,1.49,0,0,0,231,100a1.89,1.89,0,0,0,2.17,2.15,2.56,2.56,0,0,0,2.11-1.86,3.81,3.81,0,0,0-.51-2.88,1.88,1.88,0,0,0-2.06-.84,3.14,3.14,0,0,0-2.49,3,1.9,1.9,0,0,0,1,1.68,3.06,3.06,0,0,0,3.56-.5,1.9,1.9,0,0,0,0-2.66,2.71,2.71,0,0,0-2.75-.64,3.14,3.14,0,0,0-1.19.74,2.57,2.57,0,0,0-.74,1.65,1.75,1.75,0,0,0,2.15,1.71c-1,.26.37-.1.5-.19a1.85,1.85,0,0,0,.69-.7c.07-.12.06-.11,0,0a.66.66,0,0,1-.3.27l.16-.1L233,101c.32-.12-.44,0-.12,0a1,1,0,0,1-.59-.15c-.25-.21-.31-.24-.18-.1l.38-3-.2.14a1,1,0,0,1,.76-.11c.26.14.3.16.12,0l.9,2.2a2.21,2.21,0,0,1,.05-.25c.07-.33-.14.21,0,0s-.25.25-.06.07.06-.06,0,0a.53.53,0,0,1-.29.14l-1.78-.47c.29.35-.15-.29.08.1,0,.06.17.4.11.19s0-.1,0,.06l0-.18a.45.45,0,0,1,.06-.27c.06-.11,0-.1,0,0a.83.83,0,0,1,.72-.36.69.69,0,0,1,.65.24l-.29-.23c-.1-.06-.66-.38-.24-.1a.7.7,0,0,1,.34.54.87.87,0,0,0-.85-.85Z"/><path class="cls-2" d="M244,99a1.53,1.53,0,0,0-.67,1.54,1,1,0,0,0,1.37.83,1.67,1.67,0,0,0,1.05-1.14l0-.16s.06-.4,0-.2,0,0,0,0,0-.24.05-.36a2,2,0,0,0-.25-.94,2.6,2.6,0,0,0-2.12-1.15A3.17,3.17,0,0,0,241,98.9a2.57,2.57,0,0,0,2.33,3.91,2.86,2.86,0,0,0,2.61-2,3.88,3.88,0,0,0-.28-3,1.88,1.88,0,0,0-1-.82,2.26,2.26,0,0,0-1.31-.1,2.19,2.19,0,0,0-.63,3.93,1.44,1.44,0,0,0,1.92-.51c-.28.42-.52.47-1,.47-1,0,0,.07.16.07a2.5,2.5,0,0,0,.66-.09l-2.27-.92a2.12,2.12,0,0,1,.11.21c-.12-.3-.14-.34-.08-.14.11.41,0-.47,0,0q0,.32,0-.18c-.05.15,0,.14,0,0a1.23,1.23,0,0,1,.75-.64c-.33.1.47,0,.14,0,.35.06.43.06.23,0,.31.14.37.17.21.07a1.27,1.27,0,0,1,.56.71,1.06,1.06,0,0,1-.09.89c.09-.13.09-.13,0,0s-.09.11,0,0,.11-.12-.08,0a1.37,1.37,0,0,0,.3-.19,2.44,2.44,0,0,0,.43-.35c-.19.14-.22.17-.07.08-.11.05-.46.05-.23.08a.67.67,0,0,1-.4-.16c.11.12.08.06-.11-.18,0-.11,0-.12,0,0,0-.13,0,0,0-.07-.12.12.12-.09.21-.1l.53.22c-.14-.14-.08-.27,0-.42.3-.41-.29-1-.71-.7Z"/><path class="cls-2" d="M209.26,111.89c1,2.22,4,4,6,5.46a29.78,29.78,0,0,0,7.32,4c1.48.53,2.58-1.55,1.5-2.58a40.48,40.48,0,0,0-6.89-5.09c-2.1-1.27-4.47-3.16-6.93-3.43-.94-.11-1.29,1-1,1.69Z"/><path class="cls-2" d="M223.18,109.26a28.46,28.46,0,0,0-8.12,4.95,37.45,37.45,0,0,0-3.62,3.4,4.13,4.13,0,0,0-1.28,3.8.58.58,0,0,0,.41.54c3.34,1.3,4.38-1.49,6-3.9a64.54,64.54,0,0,1,7-8.16c.24-.25,0-.77-.36-.63Z"/><path class="cls-2" d="M230.08,111.82c1.27,4.73,7.37,7.75,11,10.47,2.33,1.75,4.33-1.79,2.85-3.69a23.58,23.58,0,0,0-5.58-4.64c-1.92-1.32-3.69-2.9-5.61-4.19a1.84,1.84,0,0,0-2.67,2Z"/><path class="cls-2" d="M242.82,108.69a44.45,44.45,0,0,0-7.93,6c-2.46,2.25-5.44,4.27-7.42,7-1.35,1.84,1.21,3.91,2.95,3,2.87-1.58,5.27-4.5,7.58-6.79a32.59,32.59,0,0,0,6-7.89.9.9,0,0,0-1.22-1.22Z"/><path class="cls-2" d="M206.78,136.1c0,3.35,2.84,6.42,5.13,8.67,2.13,2.1,5.07,5.14,8.35,4.64a.8.8,0,0,0,.56-1c-.74-2.82-4-4.63-6-6.54-2.22-2.12-4.26-5.1-7.09-6.31a.62.62,0,0,0-.92.52Z"/><path class="cls-2" d="M214.17,134a127.74,127.74,0,0,0,9,9.72c2.22,2.21,5.62,5.9,9,5.71a.76.76,0,0,0,.64-1.13c-.74-1.71-2.47-2.86-3.8-4.16-1.58-1.55-3.16-3.12-4.78-4.63-2.77-2.59-5.8-5.47-9.47-6.6-.68-.21-1,.62-.64,1.09Z"/><path class="cls-2" d="M225.92,133.36a28.36,28.36,0,0,0,5.18,7.46c2,2.29,4.26,4.73,7.21,5.72,1.31.44,2.13-1.08,1.64-2.14-1.23-2.65-3.72-4.63-5.83-6.59a45.63,45.63,0,0,0-6.61-5.67c-.74-.45-2,.33-1.59,1.22Z"/><path class="cls-2" d="M238.59,135c1.26,2.12,2.59,4.14,4,6.16,1.79,2.58,5.56-.39,3.38-2.61a21.34,21.34,0,0,0-6.36-4.57c-.64-.3-1.43.33-1,1Z"/><path class="cls-2" d="M240.59,159.81c-1.38,3.38-.83,7.46-.85,11.07,0,4.26.1,8.53.19,12.79l.23,11.8c.08,3.69-.42,7.44,1.5,10.69a1.7,1.7,0,0,0,2.91,0c1.69-3.41,1-7,.79-10.69l-.65-12.79c-.22-4.26-.43-8.53-.76-12.78-.27-3.5-.06-7.14-1.64-10.31-.41-.81-1.44-.45-1.72.22Z"/><path class="cls-2" d="M241,158.92c-5.41-1.33-11-.71-16.49-.47-3.9.18-9-.64-12.13,2.07a1.66,1.66,0,0,0,.34,2.58c3.36,2.19,9,.5,12.75.11,5.26-.53,10.58-.75,15.53-2.75a.81.81,0,0,0,0-1.54Z"/><path class="cls-2" d="M241.81,169.81c-1.85-3.15-6.36-2.19-9.55-2.26-5.42-.12-10.42,1.26-15.76,1.36a1.52,1.52,0,0,0-.76,2.8c4.6,2.87,9.63,1.32,14.76,1.28,3.47,0,9.28,1.18,11.31-2.28a.9.9,0,0,0,0-.9Z"/><path class="cls-2" d="M241.05,182.41c-4.61-1.62-9.38-.64-14.16-1a29.14,29.14,0,0,0-5.83-.1c-1.74.22-3.46,1.3-5.2,1.22a1.7,1.7,0,0,0-.85,3.15c4,2.18,8.29,2.31,12.8,2.48,5.05.2,10,0,13.8-3.66a1.28,1.28,0,0,0-.56-2.11Z"/><path class="cls-2" d="M242.29,196.59c-4.9-2.38-9.32-3.15-14.92-3.47-4.94-.29-12.33-1.56-16.63,1.32a1.52,1.52,0,0,0,.76,2.8,66.48,66.48,0,0,0,7.19-.21c2.63,0,5.1.49,7.7.64s5.25-.13,7.84-.19c1.85,0,6.11-.59,7.67.05.53.22.92-.69.39-.94Z"/><path class="cls-2" d="M243.41,203.33c-2.07-1.53-4-1.19-6.5-1.11-3.32.11-6.6-.49-9.91-.43-4.85.09-11.92.1-16.21,2.4-1.57.84-1,3,.46,3.51,3,1.12,6.16.47,9.3.42,3.35-.07,6.7,0,10.06.14,4.24.15,11.72,1.52,13.23-3.88a1,1,0,0,0-.43-1Z"/><path class="cls-2" d="M208.55,218.93c6.3,4.3,11.81,9.6,18.12,13.92,2.91,2,5.92,3.8,9,5.57s6.13,4.19,9.59,5.13c1.12.3,2.15-1.22,1.19-2-2.75-2.35-6.28-3.61-9.35-5.53-3.23-2-6.37-4.21-9.48-6.41-5.94-4.19-11.42-9.71-18.52-11.84-.74-.23-1.1.79-.5,1.2Z"/><path class="cls-2" d="M245.58,215.21c-7.51,2.88-13.92,7.57-20.48,12.16Q220,230.93,215,234.54c-2.8,2-5.89,3.71-7.79,6.61a1.18,1.18,0,0,0,1.32,1.72c3.44-1,6.18-3.7,9-5.81q5-3.69,10-7.3c6.31-4.51,12.75-8.7,18.07-14.39.06-.07,0-.19-.09-.16Z"/><path class="cls-2" d="M208.39,250.35c5.42,4.85,13.4,7.57,19.62,11.36q5,3,9.77,6.36c2.74,1.91,5.06,4.49,8.5,4.59a1.46,1.46,0,0,0,1.4-1.84c-1-3.05-3.38-4.14-6-5.91q-5.55-3.77-11.38-7.13c-6.19-3.58-13.81-8.69-21.06-9.51a1.23,1.23,0,0,0-.86,2.08Z"/><path class="cls-2" d="M208.4,272.42c5.94.05,11.46-6.57,15.81-10a104.27,104.27,0,0,1,10.48-7.35c2.94-1.77,6.24-3,8.46-5.67a.86.86,0,0,0-.6-1.44c-6.6-.76-14.13,5.72-19,9.46-5.09,3.9-12.12,8.53-15.81,13.77a.8.8,0,0,0,.68,1.2Z"/><path class="cls-2" d="M222.2,218.84a2.7,2.7,0,0,0,2.14,1.85,3,3,0,0,0,2.87-.77c1.4-1.38.66-4.1-1.44-4.15-1.46,0-3.28,1.26-2.75,2.87a1.56,1.56,0,0,0,2.22,1,1.64,1.64,0,0,0,.74-1.91,1.08,1.08,0,0,0-2.11.29c0-.86,1.63-.56,1.64.25a.75.75,0,0,1-.3.6c-.07,0-.32.11-.09.08-.09,0-.25,0-.06,0a2.64,2.64,0,0,0,.28,0c.12,0,.09,0-.11,0l-.43-.27a1,1,0,0,1-.3-.61.51.51,0,0,1,0-.3c0-.17,0-.2,0-.07a1.22,1.22,0,0,1,.3-.5c-.1.1-.08.08.06,0a.43.43,0,0,1,.24-.15c.11,0,.62-.08.32-.09h-.28c-.2,0-.27-.1.13,0l-.21-.05c-.14,0-.13,0,0,0a1.22,1.22,0,0,1,.8.94,1.92,1.92,0,1,0-3.7,1Z"/><path class="cls-2" d="M223.2,245.91l-.08.08a1.69,1.69,0,0,0,0,2.34,3,3,0,0,0,4.41,0,3.2,3.2,0,0,0-.22-4.47,2.79,2.79,0,0,0-2.52-.65,2.13,2.13,0,0,0-1.65,2,2,2,0,0,0,1.35,1.85,1.35,1.35,0,0,0,1.74-.9.85.85,0,0,0-.81-1.06c.5.43.67.52.53.27l-.06-.06c.05.15.07.18,0,.09s-.05-.05,0,.41a.74.74,0,0,1-.47.53c-.25.12-.3.15-.13.1s.43-.05,0,0c.31,0-.35-.11,0,0l-.21-.09c.12.07.12.07,0,0s-.12-.08,0,0c-.14-.19-.18-.23-.11-.12s-.12-.37,0,0c.06.2,0-.39,0-.08,0-.28,0-.33,0-.14l0,.1c.1-.23.12-.29.05-.18s0,.07.11-.14.27-.19.15-.12a.39.39,0,0,1-.14.08c.25-.09.31-.12.18-.08s-.07,0,.21,0a1.84,1.84,0,0,0-.33,0H225c.16,0,.16,0,0,0,.24.11.27.12.11,0l.6,2.27.05-.1a1.64,1.64,0,0,0-2.58-2Z"/><path class="cls-2" d="M255.5,7c4.94,1.24,10.47.29,15.54.29,5.24,0,10.9,1.09,16,.5,1.43-.16,2-2.24.36-2.67-4.78-1.29-10.51-.9-15.45-1-5.3-.06-11.52-.6-16.5,1.47a.71.71,0,0,0,0,1.36Z"/><path class="cls-2" d="M254.37,17.51c5.13,1.07,10.73.75,16,.79s11.13,1,16-.55a1.23,1.23,0,0,0,0-2.35c-4.85-1.57-10.93-.62-16-.61s-10.82-.32-16,.73a1,1,0,0,0,0,2Z"/><path class="cls-2" d="M256,25.57c11.32.52,22.64.83,34,1.08,2.44.06,3.05-3.81.58-4.33C279.3,20,267.13,22.79,256,24.26a.66.66,0,0,0,0,1.31Z"/><path class="cls-2" d="M255.94,36.77c5.87.35,11.71.82,17.59,1,5.35.18,11,.8,16.24.07,2.28-.31,2-3.82,0-4.34-10.72-2.78-23.39-.78-34.12,1.14-1.25.22-.86,2.05.29,2.12Z"/><path class="cls-2" d="M257.52,47.9a.05.05,0,0,0,0-.1.05.05,0,1,0,0,.1Z"/><path class="cls-2" d="M256.45,47.84a2.18,2.18,0,0,0,.59,1.55,2.37,2.37,0,0,0,1.59.71,1.31,1.31,0,0,0,1.15-.66,1.75,1.75,0,0,0,.14-1.27,1.7,1.7,0,0,0-2.42-1,1.81,1.81,0,0,0-.8,1,1.43,1.43,0,0,0,.37,1.41l0,0a1.45,1.45,0,0,0,1.72.22,1.55,1.55,0,0,0,.54-.54,2,2,0,0,0,.2-.77l-.05.38v0l-.15.35,0-.08-.22.29,0,0-.29.23a.14.14,0,0,1,.08,0l-.34.14h0l-.38.05h.09l-.37,0h.05l-.33-.14.08,0-.28-.22a.23.23,0,0,1,.07.07l-.21-.28a.36.36,0,0,1,0,.09l-.13-.33V49l-.05-.36v0l.05-.36v0l.93-.93h0l.35-.05h-.24l.35,0c-.06,0-.19-.06-.23-.05s.29.13.13.05.18.17.08.07l-.08-.09c-.09-.07.12.2.08.1s-.09-.17,0,0,0,0,0,0a1.13,1.13,0,0,0-2.21.3Z"/><path class="cls-2" d="M270.26,48.21a3,3,0,0,0-1.36-.86,2.45,2.45,0,0,0-2.16.34,1.85,1.85,0,0,0-.87,1.82A1.77,1.77,0,0,0,267.18,51a2.59,2.59,0,0,0,1.83-.26,2.74,2.74,0,0,0,1.14-1.47,2.51,2.51,0,0,0-1.71-3.09,2.69,2.69,0,0,0-3.07,1.21A2.47,2.47,0,0,0,266.82,51a1.83,1.83,0,0,0,1.79-.47,1.93,1.93,0,0,0,.47-1.79c0-.2,0-.14,0,.21s-.07.43,0,.22l.08-.55A1.46,1.46,0,0,1,268.09,50a1.36,1.36,0,0,1-1.25-.38,1.28,1.28,0,0,1,.82-2.22L269,50.56c-.3.27,0,0,.09-.05a2.13,2.13,0,0,0,.52-.47l.09-.08c-.15.1-.15.11,0,0-.2.05.12,0,.16,0a1,1,0,0,0,.46-1.72Z"/><path class="cls-2" d="M257,60.73h0a.42.42,0,0,0,.47.19h0a.44.44,0,0,0,.31-.41.59.59,0,0,0-1-.42.73.73,0,0,0,0,1,1,1,0,0,0,1,.19,1.76,1.76,0,0,0,.8-.57,3.15,3.15,0,0,0,.22-.29c-.07.1-.07.11,0,0a1.7,1.7,0,0,0,.33-.42,2.24,2.24,0,0,0-.61-2.81,1.69,1.69,0,0,0-2-.25,2.32,2.32,0,0,0-1.08,2,2.23,2.23,0,0,0,3.77,1.61,2.39,2.39,0,0,0,.71-2.36,1.86,1.86,0,0,0-1.74-1.34A2.15,2.15,0,0,0,256,59.06a1.63,1.63,0,0,0,2.41,1.38c.25-.12-.19,0-.25.06-.21,0-.18,0,.11,0s.32,0,0,0l-1.75-1.33a1.22,1.22,0,0,1,2.05-1.1,1.12,1.12,0,0,1,0,1.52l-2,.25c-.08-.05-.19-.22-.08-.06-.24-.34-.08-.11,0,0a2.78,2.78,0,0,0,.71.74s-.22-.21-.11-.06c-.09-.12-.08-.29-.17-.4.06.07,0,.09,0,.09s0,.07,0,0,.05-.09,0,0l.33-.19c-.19.06-.1.09.28.09l.28.5a.46.46,0,0,1-.3.44l-.47-.19h0v-.39a.37.37,0,0,0,0,.38Z"/><path class="cls-2" d="M258.16,71.31a2.75,2.75,0,0,0-.78-.88,1.21,1.21,0,0,0-1.44.18,1.83,1.83,0,0,0-.23,2.16l1.47-1.91.21.08c-.08,0-.07,0,0,0s.12.1.07,0,0,0,.13.16c-.09-.15.08.17.07.18l0-.16,0,.38a.89.89,0,0,1,0-.23l0,.39a1.42,1.42,0,0,1,0-.16l-.15.36a.64.64,0,0,1,.08-.14l-.24.31a.6.6,0,0,1,.08-.08l-.31.24a.6.6,0,0,1,.13-.09l-.37.16a.76.76,0,0,1,.2-.06l-.42.06h.21l-.43-.06.21.06-.4-.17.14.09-.35-.27a1.34,1.34,0,0,1,.27.26l-.27-.34.06.1-.17-.41a.75.75,0,0,1,0,.16l-.06-.45a.89.89,0,0,1,0,.23l.06-.44a.83.83,0,0,1-.06.21l.16-.39a.71.71,0,0,1-.08.15l.25-.33-.16.17a1.59,1.59,0,0,0,1.55,2.65,2.42,2.42,0,0,0,1.58-2.84,2.27,2.27,0,0,0-2.82-1.59,2.17,2.17,0,0,0-1.66,2.22,2.15,2.15,0,0,0,2,2,1.31,1.31,0,0,0,.92-2.22c-.1-.09-.07,0,.07.12a.47.47,0,0,1,.09.28c0,.12,0,.14,0,0,0,.21,0,.26,0,.14l-1.14.87a2.41,2.41,0,0,0,.94-.23.76.76,0,0,0,.44-1.1Z"/><path class="cls-2" d="M267.21,57.54A1.92,1.92,0,0,0,265.4,59a2,2,0,0,0,1.31,2.41,2.41,2.41,0,0,0,2.77-2.49,2.27,2.27,0,0,0-1.55-2.16,2.15,2.15,0,0,0-2.42,1A2.24,2.24,0,0,0,266.7,61,1.74,1.74,0,0,0,268,57.87a.18.18,0,0,1-.07,0l.35.28-.05-.06.27.35s0,0,0-.06l.17.42a.22.22,0,0,1,0-.08l.06.47a.48.48,0,0,1,0-.12l-.06.48a.42.42,0,0,1,0-.16l-.18.43a.42.42,0,0,1,.09-.14l-.29.37.09-.09-.38.29.11-.06-.45.19.15,0-.5.07h.08l-.49-.07h0l-.82-.47a.36.36,0,0,1,.11.1l-.28-.37a.54.54,0,0,1,.07.13l-.18-.44a.73.73,0,0,1,.05.2l-.06-.48a.67.67,0,0,1,0,.2l.06-.47a.73.73,0,0,1-.05.2l.18-.42a1,1,0,0,1-.1.17l.27-.35-.1.11.35-.27-.13.08.41-.18-.05,0h.91l0,0,.41.18,0,0,.34.27-.06-.07.26.35a.8.8,0,0,1-.08-.16l.16.39a.19.19,0,0,1,0-.08l.06.43a.28.28,0,0,1,0-.13l-.06.41v0l-.16.37.05-.07-.24.31a.09.09,0,0,1,.06-.06,1.47,1.47,0,0,0,.39-.67,1.54,1.54,0,0,0-.08-1,1.5,1.5,0,0,0-1.37-.93Z"/><path class="cls-2" d="M266.34,72.49a1.38,1.38,0,0,0,1.86.46,2,2,0,0,0,1-1.68,1.4,1.4,0,0,0-1.38-1.38,1.94,1.94,0,0,0-2,2,2.05,2.05,0,0,0,1.49,2,1.38,1.38,0,0,0,1.6-.79,1.35,1.35,0,0,0-.56-1.7c-.15-.07.16.14.16.14s.19.29.12.16.09.32.09.22a.42.42,0,0,0,0-.12l.05.38V72l-.05.39a1.49,1.49,0,0,0,0-.18c-.13.27-.16.35-.09.22a1.24,1.24,0,0,0,.16-.4c0-.14,0-.07-.1.22l0-.08a1,1,0,0,1-.38.39c.11-.07,0,0-.21.08l-1.69-1c0,.14,0,.09,0-.16q0,.21,0-.15l.08-.17c-.07.11,0,.08.08-.08a1.43,1.43,0,0,0-.33.59c-.06.23.1-.14.15-.2a.9.9,0,0,0-.14,1Z"/><path class="cls-2" d="M256.83,83.47v0l-.15-.33a0,0,0,0,1,0,0l-.05-.39v0l.06-.42,0,0,.17-.4,0,0,.29-.38a3.32,3.32,0,0,0-.37.47,2.89,2.89,0,0,0-.28,1.19l.07-.55a1.46,1.46,0,0,1-.05.2l.21-.5a1,1,0,0,1-.08.14l.33-.43-.09.08.43-.33-.06,0,.5-.21-.11,0,.57-.07h-.12l.57.08-.11,0,.52.22L259,82l.44.34a.52.52,0,0,1-.1-.11l.34.45-.06-.1.23.53-.33-.75.22.53a1.46,1.46,0,0,1-.05-.2l.08.59a.43.43,0,0,1,0-.16l-.08.58a2.36,2.36,0,0,0,0-1.29l-.22-.51a1.56,1.56,0,0,0-.55-.59,1.94,1.94,0,0,0-1.29-.46,2.36,2.36,0,0,0-1.32.46,2,2,0,0,0-.6.68,2.86,2.86,0,0,0,0,2.82,2.65,2.65,0,0,0,4.09.55,2.5,2.5,0,0,0-.57-4,2,2,0,0,0-1.8.09,1.78,1.78,0,0,0-.6.59,2.43,2.43,0,0,0-.16.37,1.43,1.43,0,0,0,.14,1Z"/><path class="cls-2" d="M269.36,80.76a1.74,1.74,0,0,0-2.18-.27,2,2,0,0,0-.93,2.29,2.2,2.2,0,0,0,2.12,1.51,2.56,2.56,0,0,0,2.13-1.19,2.25,2.25,0,0,0-.59-2.79,3,3,0,0,0-2.41-.77,2.6,2.6,0,0,0-2.15,1.79,2.85,2.85,0,0,0,.19,2.27,2.5,2.5,0,0,0,2.75,1.23A2.58,2.58,0,0,0,270.2,83a1.73,1.73,0,0,0-3.15-1.33c-.14.18.14-.18.15-.18l-.05.06.06,0c.29-.23-.16,0,.19-.12s.09-.05,0,0l.48-.06h-.14l.48.06c-.09,0-.3-.09,0,0a1.21,1.21,0,0,1,.6.52c-.11-.2.1.25.09.26a1.91,1.91,0,0,0,0-.21l.07.5a.81.81,0,0,1,0-.22l-.07.5,0-.14c0-.18,0-.1-.12.25l0-.07c.1-.15,0-.08-.17.22.15-.13.22-.14-.18.11.17-.1.09-.07-.23.08l.15,0-.49.07a1.71,1.71,0,0,1,.32,0l-.49-.06a.94.94,0,0,1,.24.06s-.47-.24-.18,0c.14.09-.33-.32-.14-.1l-.17-.22s.05.09.08.14l-.18-1.33c.14-.29.17-.36.08-.21l.17-.23c-.17.21.34-.22.1-.08.28-.11.35-.14.23-.11s-.05,0,.25,0a1.08,1.08,0,0,1,.76.33l.16.21c.12.65.17.83.17.56,0,.09-.05.44,0,.15s-.11.21-.16.28a1,1,0,0,1-1,.34,1.28,1.28,0,0,0,1.42-.59,1.33,1.33,0,0,0-.19-1.53Z"/><path class="cls-2" d="M254.59,99.79c2.22,4.46,6.17,8.26,9.92,11.45,2.43,2.06,4.34,5.34,7.68,4.71s7.74-4.63,10.23-6.65c3.25-2.62,7.85-6.19,8.45-10.53.07-.47-.3-1.09-.86-.87-6.44,2.54-9.56,11-16.07,13.88-5.25,2.27-7-2.35-10.38-5.77a36.29,36.29,0,0,0-8.33-6.86.47.47,0,0,0-.64.64Z"/><path class="cls-2" d="M255.22,122.22c2.6-3.12,5-6.35,7.55-9.53,2.38-3,4.62-6.68,7.24-9.37,2.93-3,3.12-.69,5.25,2.08,1.26,1.63,2.51,3.27,3.78,4.89,2.76,3.52,5.7,6.89,8.44,10.44a2.71,2.71,0,1,0,4.27-3.3A120.28,120.28,0,0,0,272.47,98.7a1,1,0,0,0-1.39,0c-3.46,3.54-7.29,6.2-10.24,10.29a60.62,60.62,0,0,0-7.1,12.37c-.34.81.94,1.53,1.48.86Z"/><path class="cls-2" d="M270.57,115.33c-2.46,4.1-2,10-1.84,14.65s.17,10.59,2.65,14.77a.8.8,0,0,0,1.45-.19c1.85-4.61,1.18-10.64.91-15.54-.24-4.38,0-9.84-2.28-13.69a.52.52,0,0,0-.89,0Z"/><path class="cls-2" d="M244.9,140.61a25.25,25.25,0,0,0,6.56.28c2.52-.07,4.11-.51,6.24,1.83a26.7,26.7,0,0,1,1.83,3.23,53.73,53.73,0,0,0,10.9,11.68,1.66,1.66,0,0,0,2.25,0,109.24,109.24,0,0,0,8.51-7.86c2-2.15,4-6.7,6.61-8,2.94-1.52,8.88-.81,12.09-.85,4.45-.06,8.88.13,13.33.21,2.32,0,2.26-3.39,0-3.56a76.25,76.25,0,0,0-15.24.73c-3.33.42-8.09.12-11.26,1.38-2.63,1-4.26,3.73-6.11,5.75a89.59,89.59,0,0,1-10.18,10h2.25a63.25,63.25,0,0,1-7.59-7.5c-1.95-2.32-3.77-5.7-6.21-7.63-3.46-2.75-10.2-1.49-14-.09-.2.07-.25.4,0,.45Z"/><path class="cls-2" d="M254.75,163c-1,2.36-.49,5.13-.45,7.65,0,2.9-.13,6.09.84,8.85a.43.43,0,0,0,.82,0c.79-2.81.43-5.95.28-8.85-.12-2.52.24-5.36-.93-7.65a.33.33,0,0,0-.56,0Z"/><path class="cls-2" d="M254.8,162.91a55.92,55.92,0,0,0,13.12.45l-.93-1.61q-3.09,4.29-6.26,8.49c-2,2.58-4.31,5.26-5.58,8.25a.75.75,0,0,0,1.17.91c2.36-2,4.17-5,5.95-7.5,2.16-3.05,4.34-6.07,6.57-9.07a1.08,1.08,0,0,0-.92-1.61c-4.34.39-8.68.77-13,1.05-.34,0-.47.59-.09.64Z"/><path class="cls-2" d="M254.65,189.47c4.53-.05,8.7-5.92,11.54-8.93,4.81-5.08,8.66-10.79,13.75-15.57,1.22-1.14-.8-3.05-1.79-1.79-4.17,5.3-9.26,9.27-14,14-2,2-4,4.09-6,6.11-1.71,1.71-3.47,2.77-4.35,5a.9.9,0,0,0,.86,1.13Z"/><path class="cls-2" d="M258.9,198.71l-.74,0c-2.15.12-1.16,3.42.65,2.39,6.8-3.88,12.36-10.38,18-15.75S288.45,174.53,293,168c.57-.81-.54-1.85-1.34-1.34-6.75,4.26-12.39,10-18.13,15.49-5.59,5.36-12.31,10.64-16.47,17.25l2.34.3-.14-.7a.36.36,0,0,0-.36-.28Z"/><path class="cls-2" d="M268.69,204c3.73-2.14,6.6-5.54,9.75-8.44a94.22,94.22,0,0,1,12.14-9.86,1.08,1.08,0,0,0-1.09-1.86c-8.41,4.53-18.05,9.59-22.21,18.74a1,1,0,0,0,1.41,1.42Z"/><path class="cls-2" d="M254.54,217.37c-.59,4.43.21,9,.45,13.48s.36,9,.34,13.52-.15,9-.4,13.52c-.2,3.54-1.29,7.14.73,10.23a1.19,1.19,0,0,0,1.84.24c2.65-2.77,2.19-6.81,2.4-10.47q.38-6.75.33-13.52c-.06-8.67.61-19.24-2.46-27.43a1.65,1.65,0,0,0-3.23.43Z"/><path class="cls-2" d="M255.55,218.89c5.47,1.29,11.06,2.26,16.65,3,5.8.77,10.92-.9,16.66-.82l-2.27-1.3c1.91,3.37,1.07,9.61,1.1,13.4,0,4.27.25,8.54.33,12.81.15,7.8-1.33,16.51,1.33,24,.29.83,1.6,1.2,2,.27,3.41-7,2.46-15.61,2.27-23.25-.11-4.27-.24-8.55-.75-12.8-.53-4.45-2.76-10.79-1.54-15a2.66,2.66,0,0,0-1.83-3.22c-2.78-.89-4.9-.65-7.75-.15a35.77,35.77,0,0,1-10.58.31c-5.73-.62-10.88-1.94-15.83,1.61a.66.66,0,0,0,.16,1.2Z"/><path class="cls-2" d="M265.74,220.56c-.67,3.91-1.44,7.14-1.16,11.18.33,4.67.9,9.31,1.13,14,.22,4.33.29,8.66.11,13-.14,3.56-.7,7.41.9,10.66a1,1,0,0,0,1.62.21c4.91-5.45,3.14-17.11,2.81-23.85-.23-4.65-.48-9.38-1.13-14-.63-4.44-2.18-7.32-4.19-11.19a0,0,0,0,0-.09,0Z"/><path class="cls-2" d="M72.07.45C69.66,6,70.54,13,70.57,18.84c0,6.45-1,14.51,1,20.64.48,1.51,2.87,1.7,3.25,0,1.43-6.31-.13-14.16-.38-20.64C74.17,12.93,74.92,6,72.47.45a.23.23,0,0,0-.4,0Z"/><path class="cls-2" d="M81.73,2.46A97.94,97.94,0,0,0,80.38,20c0,5.87-.27,12.27,1.39,18a1.8,1.8,0,0,0,3.44,0c1.35-5.77.67-12.09.17-17.95a82,82,0,0,0-3.2-17.52c-.06-.2-.4-.24-.45,0Z"/><path class="cls-2" d="M93.86,3.72C92.52,9.25,93,15.48,92.77,21.16s-.92,11.8-.13,17.48c.13.92,1.49.77,1.72,0,1.63-5.49,1.56-11.78,1.69-17.48s.59-12-.92-17.44a.66.66,0,0,0-1.27,0Z"/><path class="cls-2" d="M102.7,4.46c-1.24,6.45.29,13.73.81,20.22.43,5.35.46,11.73,3.7,16.22a1.46,1.46,0,0,0,2.66-1.12,174.28,174.28,0,0,1-3.07-18c-.56-5.68-.41-12-2.47-17.37-.27-.69-1.46-.9-1.63,0Z"/><path class="cls-2" d="M72.4,52.47c6.8,0,13.67.24,20.49.48,5.43.18,12.55.78,17.31-2.25a1.14,1.14,0,0,0-.57-2.1c-3.51-.13-6.95.82-10.48,1-3.28.14-6.57,0-9.86,0-6.18-.11-11.33-.09-17,2.4-.26.11-.12.52.14.52Z"/><path class="cls-2" d="M104.53,49.42a143.42,143.42,0,0,0,.28,33.77c.33,2.49,4.16,2.66,4,0C108.29,72,107.27,60.6,106,49.42a.75.75,0,0,0-1.5,0Z"/><path class="cls-2" d="M72,52.56c-.78,11.49-1.21,23-1.12,34.52a1.73,1.73,0,0,0,3.46,0c.09-11.53-.34-23-1.12-34.52a.61.61,0,0,0-1.22,0Z"/><path class="cls-2" d="M74.18,86c6.26-.2,12.41-1.53,18.69-1.75,5-.17,11.2,1.25,15.86-.72,1.11-.48.83-2,0-2.59-4.58-3-12.5-1.76-17.75-1.31-6,.51-12,1.22-17.53,3.66-1.35.6-.64,2.75.73,2.71Z"/><path class="cls-2" d="M74.65,66.22C78.89,68.5,84.29,68,89,67.91c5.2-.1,11.36.37,16.29-1.39,1.44-.52,1.84-3,0-3.35-5.24-.85-11,.32-16.29.47-4.69.13-10-.49-14.32,1.45a.66.66,0,0,0,0,1.13Z"/><path class="cls-2" d="M73.06,99a2.89,2.89,0,0,0,.23,1.78,2,2,0,0,0,2.57.86,2.14,2.14,0,0,0,1.54-2,2.65,2.65,0,0,0-.91-1.94,4.54,4.54,0,0,0-1.16-.78,3.87,3.87,0,0,0-3.43,0,3.2,3.2,0,0,0-1.59,3.49,3,3,0,0,0,2.8,2.31A2.94,2.94,0,0,0,76,100.65a2.66,2.66,0,0,0-1.51-3.14A2.38,2.38,0,0,0,71.25,99a2.14,2.14,0,0,0,1.58,2.66,1.49,1.49,0,0,0,1.87-1.42c0-.36-.12.33,0,0l-.83,1.08a1.67,1.67,0,0,1-1.58,0l.13.1a1.77,1.77,0,0,1,.83-3.24c1,.09,1.6.54,1.7,1.35.09.49.13.61.12.34s0-.15,0,.31a1.6,1.6,0,0,1-.73,1c-.38.13-.44.15-.2.08-.4,0-.47.06-.22.06l-.35,0c.24.07.2,0-.12-.08a3.67,3.67,0,0,1,.51.31,2.49,2.49,0,0,0,1.38.34l-2-1.54c.1.33,0-.47,0-.13,0-.19.08-.31,0-.06l.62-.8c.15-.07.16-.07,0,0,.19,0,.24,0,.13,0s-.3-.22-.36-.29a.37.37,0,0,0-.62.17Z"/><path class="cls-2" d="M86.27,98.65a1.94,1.94,0,0,0-3-.3,2.4,2.4,0,0,0,.59,3.73,2.83,2.83,0,0,0,3.72-1,2.91,2.91,0,1,0-4,.9,2.72,2.72,0,0,0,3.39-.31,2.78,2.78,0,0,0,.48-3.08,2.62,2.62,0,0,0-3.11-1.53,2.41,2.41,0,0,0-1.73,3,1.2,1.2,0,0,0,.81.81,1.11,1.11,0,0,0,1.12-.3c.06-.07.35-.46.22-.27s0,.06,0,0,0,0-.07.06a1.24,1.24,0,0,0,.2-.1l.15-.08c.07,0,.06,0,0,0s-.12,0,0,0,.06,0-.16,0c.22,0,0,0-.1,0s-.27-.13-.17-.07.05,0-.06,0-.33-.43-.21-.2l-.1-.25c0,.14,0,.12,0,0s0-.07,0,0c0,.22.1-.45,0-.17l.12-.27c-.07.12-.06.1,0,0a1.25,1.25,0,0,1,1.27-.42l.3.13c-.12-.07-.1-.05,0,.06s.17.13.1.06-.06,0,.16.23c-.14-.23.08.22.09.24,0-.15,0-.11,0,.11a.7.7,0,0,1,0,.38,1.53,1.53,0,0,1-1,1.25s-.58,0-.3,0-.48-.09-.24,0,.06,0-.3-.12l-.28-.22a1.47,1.47,0,0,1-.27-1.54c0-.09.43-.6.21-.39l.26-.21c.33-.12.42-.16.27-.11s-.06,0,.13,0a1,1,0,0,1,.51,0,1.54,1.54,0,0,1,1,.93c0,.08.06.48,0,.17,0-.1-.13-.5-.08-.58,0,.09.05.41,0,.55a.61.61,0,0,1-.23.34q-.26.21-.09.12a1,1,0,0,0,.37-1.41Z"/><path class="cls-2" d="M95.4,98.77A1.49,1.49,0,0,0,94,100a1.89,1.89,0,0,0,2.17,2.15,2.56,2.56,0,0,0,2.11-1.86,3.81,3.81,0,0,0-.51-2.88,1.88,1.88,0,0,0-2.06-.84,3.14,3.14,0,0,0-2.49,3,1.9,1.9,0,0,0,1,1.68,3.06,3.06,0,0,0,3.56-.5,1.9,1.9,0,0,0,0-2.66A2.71,2.71,0,0,0,95,97.42a3.14,3.14,0,0,0-1.19.74,2.57,2.57,0,0,0-.74,1.65,1.75,1.75,0,0,0,2.15,1.71c-1,.26.37-.1.5-.19a1.85,1.85,0,0,0,.69-.7c.07-.12.06-.11,0,0a.66.66,0,0,1-.3.27l.16-.1L96,101c.32-.12-.44,0-.12,0a1,1,0,0,1-.59-.15c-.25-.21-.31-.24-.18-.1l.38-3-.2.14A1,1,0,0,1,96,97.8c.26.14.3.16.12,0l.9,2.2a2.21,2.21,0,0,1,0-.25c.07-.33-.14.21,0,0s-.25.25-.06.07.06-.06,0,0a.53.53,0,0,1-.29.14l-1.78-.47c.29.35-.15-.29.08.1,0,.06.17.4.11.19s0-.1,0,.06l0-.18a.45.45,0,0,1,.06-.27c.06-.11,0-.1,0,0a.83.83,0,0,1,.72-.36.69.69,0,0,1,.65.24l-.29-.23c-.1-.06-.66-.38-.24-.1a.7.7,0,0,1,.34.54.87.87,0,0,0-.85-.85Z"/><path class="cls-2" d="M107,99a1.53,1.53,0,0,0-.67,1.54,1,1,0,0,0,1.37.83,1.67,1.67,0,0,0,1-1.14l0-.16s.06-.4,0-.2,0,0,0,0,0-.24,0-.36a2,2,0,0,0-.25-.94,2.6,2.6,0,0,0-2.12-1.15A3.17,3.17,0,0,0,104,98.9a2.57,2.57,0,0,0,2.33,3.91,2.86,2.86,0,0,0,2.61-2,3.88,3.88,0,0,0-.28-3,1.88,1.88,0,0,0-1-.82,2.26,2.26,0,0,0-1.31-.1,2.19,2.19,0,0,0-.63,3.93,1.44,1.44,0,0,0,1.92-.51c-.28.42-.52.47-1,.47-1,0,0,.07.16.07a2.5,2.5,0,0,0,.66-.09l-2.27-.92a2.12,2.12,0,0,1,.11.21c-.12-.3-.14-.34-.08-.14.11.41,0-.47,0,0q0,.32,0-.18c0,.15,0,.14,0,0a1.23,1.23,0,0,1,.75-.64c-.33.1.47,0,.14,0,.35.06.43.06.23,0,.31.14.37.17.21.07a1.27,1.27,0,0,1,.56.71,1.06,1.06,0,0,1-.09.89c.09-.13.09-.13,0,0s-.09.11,0,0,.11-.12-.08,0a1.37,1.37,0,0,0,.3-.19,2.44,2.44,0,0,0,.43-.35c-.19.14-.22.17-.07.08-.11.05-.46.05-.23.08a.67.67,0,0,1-.4-.16c.11.12.08.06-.11-.18,0-.11,0-.12,0,0,0-.13,0,0,0-.07-.12.12.12-.09.21-.1l.53.22c-.14-.14-.08-.27,0-.42.3-.41-.29-1-.71-.7Z"/><path class="cls-2" d="M72.26,111.89c1,2.22,4,4,6,5.46a29.78,29.78,0,0,0,7.32,4c1.48.53,2.58-1.55,1.5-2.58a40.48,40.48,0,0,0-6.89-5.09c-2.1-1.27-4.47-3.16-6.93-3.43-.94-.11-1.29,1-1,1.69Z"/><path class="cls-2" d="M86.18,109.26a28.46,28.46,0,0,0-8.12,4.95,37.45,37.45,0,0,0-3.62,3.4,4.13,4.13,0,0,0-1.28,3.8.58.58,0,0,0,.41.54c3.34,1.3,4.38-1.49,6-3.9a64.54,64.54,0,0,1,7-8.16c.24-.25,0-.77-.36-.63Z"/><path class="cls-2" d="M93.08,111.82c1.27,4.73,7.37,7.75,11,10.47,2.33,1.75,4.33-1.79,2.85-3.69a23.58,23.58,0,0,0-5.58-4.64c-1.92-1.32-3.69-2.9-5.61-4.19a1.84,1.84,0,0,0-2.67,2Z"/><path class="cls-2" d="M105.82,108.69a44.45,44.45,0,0,0-7.93,6c-2.46,2.25-5.44,4.27-7.42,7-1.35,1.84,1.21,3.91,3,3,2.87-1.58,5.27-4.5,7.58-6.79a32.59,32.59,0,0,0,6-7.89.9.9,0,0,0-1.22-1.22Z"/><path class="cls-2" d="M69.78,136.1c0,3.35,2.84,6.42,5.13,8.67,2.13,2.1,5.07,5.14,8.35,4.64a.8.8,0,0,0,.56-1c-.74-2.82-4-4.63-6-6.54-2.22-2.12-4.26-5.1-7.09-6.31a.62.62,0,0,0-.92.52Z"/><path class="cls-2" d="M77.17,134a127.74,127.74,0,0,0,9,9.72c2.22,2.21,5.62,5.9,9,5.71a.76.76,0,0,0,.64-1.13c-.74-1.71-2.47-2.86-3.8-4.16-1.58-1.55-3.16-3.12-4.78-4.63-2.77-2.59-5.8-5.47-9.47-6.6-.68-.21-1,.62-.64,1.09Z"/><path class="cls-2" d="M88.92,133.36a28.36,28.36,0,0,0,5.18,7.46c2,2.29,4.26,4.73,7.21,5.72,1.31.44,2.13-1.08,1.64-2.14-1.23-2.65-3.72-4.63-5.83-6.59a45.63,45.63,0,0,0-6.61-5.67c-.74-.45-2,.33-1.59,1.22Z"/><path class="cls-2" d="M101.59,135c1.26,2.12,2.59,4.14,4,6.16,1.79,2.58,5.56-.39,3.38-2.61a21.34,21.34,0,0,0-6.36-4.57c-.64-.3-1.43.33-1,1Z"/><path class="cls-2" d="M103.59,159.81c-1.38,3.38-.83,7.46-.85,11.07,0,4.26.1,8.53.19,12.79l.23,11.8c.08,3.69-.42,7.44,1.5,10.69a1.7,1.7,0,0,0,2.91,0c1.69-3.41,1-7,.79-10.69l-.65-12.79c-.22-4.26-.43-8.53-.76-12.78-.27-3.5-.06-7.14-1.64-10.31-.41-.81-1.44-.45-1.72.22Z"/><path class="cls-2" d="M104,158.92c-5.41-1.33-11-.71-16.49-.47-3.9.18-9-.64-12.13,2.07a1.66,1.66,0,0,0,.34,2.58c3.36,2.19,9,.5,12.75.11,5.26-.53,10.58-.75,15.53-2.75a.81.81,0,0,0,0-1.54Z"/><path class="cls-2" d="M104.81,169.81c-1.85-3.15-6.36-2.19-9.55-2.26-5.42-.12-10.42,1.26-15.76,1.36a1.52,1.52,0,0,0-.76,2.8c4.6,2.87,9.63,1.32,14.76,1.28,3.47,0,9.28,1.18,11.31-2.28a.9.9,0,0,0,0-.9Z"/><path class="cls-2" d="M104.05,182.41c-4.61-1.62-9.38-.64-14.16-1a29.14,29.14,0,0,0-5.83-.1c-1.74.22-3.46,1.3-5.2,1.22A1.7,1.7,0,0,0,78,185.7c4,2.18,8.29,2.31,12.8,2.48,5,.2,10,0,13.8-3.66a1.28,1.28,0,0,0-.56-2.11Z"/><path class="cls-2" d="M105.29,196.59c-4.9-2.38-9.32-3.15-14.92-3.47-4.94-.29-12.33-1.56-16.63,1.32a1.52,1.52,0,0,0,.76,2.8,66.48,66.48,0,0,0,7.19-.21c2.63,0,5.1.49,7.7.64s5.25-.13,7.84-.19c1.85,0,6.11-.59,7.67.05.53.22.92-.69.39-.94Z"/><path class="cls-2" d="M106.41,203.33c-2.07-1.53-4-1.19-6.5-1.11-3.32.11-6.6-.49-9.91-.43-4.85.09-11.92.1-16.21,2.4-1.57.84-1,3,.46,3.51,3,1.12,6.16.47,9.3.42,3.35-.07,6.7,0,10.06.14,4.24.15,11.72,1.52,13.23-3.88a1,1,0,0,0-.43-1Z"/><path class="cls-2" d="M71.55,218.93c6.3,4.3,11.81,9.6,18.12,13.92,2.91,2,5.92,3.8,9,5.57s6.13,4.19,9.59,5.13c1.12.3,2.15-1.22,1.19-2-2.75-2.35-6.28-3.61-9.35-5.53-3.23-2-6.37-4.21-9.48-6.41-5.94-4.19-11.42-9.71-18.52-11.84-.74-.23-1.1.79-.5,1.2Z"/><path class="cls-2" d="M108.58,215.21c-7.51,2.88-13.92,7.57-20.48,12.16Q83,230.93,78,234.54c-2.8,2-5.89,3.71-7.79,6.61a1.18,1.18,0,0,0,1.32,1.72c3.44-1,6.18-3.7,9-5.81q5-3.69,10-7.3c6.31-4.51,12.75-8.7,18.07-14.39.06-.07,0-.19-.09-.16Z"/><path class="cls-2" d="M71.39,250.35c5.42,4.85,13.4,7.57,19.62,11.36q5,3,9.77,6.36c2.74,1.91,5.06,4.49,8.5,4.59a1.46,1.46,0,0,0,1.4-1.84c-1-3.05-3.38-4.14-6-5.91q-5.55-3.77-11.38-7.13c-6.19-3.58-13.81-8.69-21.06-9.51a1.23,1.23,0,0,0-.86,2.08Z"/><path class="cls-2" d="M71.4,272.42c5.94.05,11.46-6.57,15.81-10a104.27,104.27,0,0,1,10.48-7.35c2.94-1.77,6.24-3,8.46-5.67a.86.86,0,0,0-.6-1.44c-6.6-.76-14.13,5.72-19,9.46-5.09,3.9-12.12,8.53-15.81,13.77a.8.8,0,0,0,.68,1.2Z"/><path class="cls-2" d="M85.2,218.84a2.7,2.7,0,0,0,2.14,1.85,3,3,0,0,0,2.87-.77c1.4-1.38.66-4.1-1.44-4.15-1.46,0-3.28,1.26-2.75,2.87a1.56,1.56,0,0,0,2.22,1,1.64,1.64,0,0,0,.74-1.91,1.08,1.08,0,0,0-2.11.29c0-.86,1.63-.56,1.64.25a.75.75,0,0,1-.3.6c-.07,0-.32.11-.09.08-.09,0-.25,0-.06,0a2.64,2.64,0,0,0,.28,0c.12,0,.09,0-.11,0l-.43-.27a1,1,0,0,1-.3-.61.51.51,0,0,1,0-.3c0-.17,0-.2,0-.07a1.22,1.22,0,0,1,.3-.5c-.1.1-.08.08.06,0a.43.43,0,0,1,.24-.15c.11,0,.62-.08.32-.09h-.28c-.2,0-.27-.1.13,0l-.21-.05c-.14,0-.13,0,0,0a1.22,1.22,0,0,1,.8.94,1.92,1.92,0,1,0-3.7,1Z"/><path class="cls-2" d="M86.2,245.91l-.08.08a1.69,1.69,0,0,0,0,2.34,3,3,0,0,0,4.41,0,3.2,3.2,0,0,0-.22-4.47,2.79,2.79,0,0,0-2.52-.65,2.13,2.13,0,0,0-1.65,2,2,2,0,0,0,1.35,1.85,1.35,1.35,0,0,0,1.74-.9.85.85,0,0,0-.81-1.06c.5.43.67.52.53.27l-.06-.06c0,.15.07.18,0,.09s-.05-.05,0,.41a.74.74,0,0,1-.47.53c-.25.12-.3.15-.13.1s.43-.05,0,0c.31,0-.35-.11,0,0l-.21-.09c.12.07.12.07,0,0s-.12-.08,0,0c-.14-.19-.18-.23-.11-.12s-.12-.37,0,0c.06.2,0-.39,0-.08,0-.28,0-.33,0-.14l0,.1c.1-.23.12-.29.05-.18s0,.07.11-.14.27-.19.15-.12a.39.39,0,0,1-.14.08c.25-.09.31-.12.18-.08s-.07,0,.21,0a1.84,1.84,0,0,0-.33,0H88c.16,0,.16,0,0,0,.24.11.27.12.11,0l.6,2.27,0-.1a1.64,1.64,0,0,0-2.58-2Z"/><path class="cls-2" d="M118.5,7c4.94,1.24,10.47.29,15.54.29,5.24,0,10.9,1.09,16.05.5,1.43-.16,1.95-2.24.36-2.67-4.78-1.29-10.51-.9-15.45-1-5.3-.06-11.52-.6-16.5,1.47a.71.71,0,0,0,0,1.36Z"/><path class="cls-2" d="M117.37,17.51c5.13,1.07,10.73.75,16,.79s11.13,1,16-.55a1.23,1.23,0,0,0,0-2.35c-4.85-1.57-10.93-.62-16-.61-5.24,0-10.82-.32-16,.73a1,1,0,0,0,0,2Z"/><path class="cls-2" d="M119,25.57c11.32.52,22.64.83,34,1.08,2.44.06,3-3.81.58-4.33C142.3,20,130.13,22.79,119,24.26a.66.66,0,0,0,0,1.31Z"/><path class="cls-2" d="M118.94,36.77c5.87.35,11.71.82,17.59,1,5.35.18,10.95.8,16.24.07,2.28-.31,2-3.82,0-4.34-10.72-2.78-23.39-.78-34.12,1.14-1.25.22-.86,2.05.29,2.12Z"/><path class="cls-2" d="M120.52,47.9a.05.05,0,0,0,0-.1.05.05,0,1,0,0,.1Z"/><path class="cls-2" d="M119.45,47.84a2.18,2.18,0,0,0,.59,1.55,2.37,2.37,0,0,0,1.59.71,1.31,1.31,0,0,0,1.15-.66,1.75,1.75,0,0,0,.14-1.27,1.7,1.7,0,0,0-2.42-1,1.81,1.81,0,0,0-.8,1,1.43,1.43,0,0,0,.37,1.41l0,0a1.45,1.45,0,0,0,1.72.22,1.55,1.55,0,0,0,.54-.54,2,2,0,0,0,.2-.77l0,.38v0l-.15.35,0-.08-.22.29,0,0-.29.23a.14.14,0,0,1,.08,0l-.34.14h0l-.38.05h.09l-.37,0h0l-.33-.14.08,0-.28-.22a.23.23,0,0,1,.07.07l-.21-.28a.36.36,0,0,1,0,.09l-.13-.33V49l0-.36v0l0-.36v0l.93-.93h0l.35-.05h-.24l.35,0c-.06,0-.19-.06-.23-.05s.29.13.13.05.18.17.08.07l-.08-.09c-.09-.07.12.2.08.1s-.09-.17,0,0,0,0,0,0a1.13,1.13,0,0,0-2.21.3Z"/><path class="cls-2" d="M133.26,48.21a3,3,0,0,0-1.36-.86,2.45,2.45,0,0,0-2.16.34,1.85,1.85,0,0,0-.87,1.82A1.77,1.77,0,0,0,130.18,51a2.59,2.59,0,0,0,1.83-.26,2.74,2.74,0,0,0,1.14-1.47,2.51,2.51,0,0,0-1.71-3.09,2.69,2.69,0,0,0-3.07,1.21A2.47,2.47,0,0,0,129.82,51a1.83,1.83,0,0,0,1.79-.47,1.93,1.93,0,0,0,.47-1.79c0-.2,0-.14,0,.21s-.07.43,0,.22l.08-.55A1.46,1.46,0,0,1,131.09,50a1.36,1.36,0,0,1-1.25-.38,1.28,1.28,0,0,1,.82-2.22L132,50.56c-.3.27,0,0,.09-.05a2.13,2.13,0,0,0,.52-.47l.09-.08c-.15.1-.15.11,0,0-.2.05.12,0,.16,0a1,1,0,0,0,.46-1.72Z"/><path class="cls-2" d="M142,51.43a1.93,1.93,0,0,0,2.09-.86,2.16,2.16,0,0,0-.32-2.56,2.48,2.48,0,0,0-2.48-.72,2.85,2.85,0,0,0-1.84,2,2,2,0,0,0,.9,2.21,2.76,2.76,0,0,0,2.78,0,2.41,2.41,0,0,0,1-3,2,2,0,0,0-2.32-1.13,1.87,1.87,0,0,0-1.39,1.77,1.81,1.81,0,0,0,.87,1.57,1.7,1.7,0,0,0,1.27.17l.4-.17c.55-.4.43-.36-.35.12l-.46.07h0l-.47-.06h0l-.79-.46,0,0-.28-.37,0,0-.19-.44v-.95a2.2,2.2,0,0,0,0,1.11l-.07-.51a.62.62,0,0,1,0,.13l.07-.51a.65.65,0,0,1,0,.13l.19-.46a.26.26,0,0,1-.07.11l.3-.39a.47.47,0,0,1-.1.1l.39-.3-.19.1.47-.19-.21,0,.51-.07h-.21l.52.07-.14,0,.46.19a.67.67,0,0,1-.12-.06l.89,2.2.06-.16-.2.47a2.53,2.53,0,0,1,.13-.22l-.31.4.17-.18-.39.31.65-.49-.39.3.13-.07-.45.19.14,0-.48.07h.14l-.47-.07c.2,0,.22.13-.13-.08a1.25,1.25,0,0,1-.57-1,1,1,0,0,1,.29-.73l.19-.14-.32.25a1.35,1.35,0,0,0,.6,2.25Z"/><path class="cls-2" d="M150.09,49.07a1.86,1.86,0,0,0-.2,1.4,1.58,1.58,0,0,0,1.46,1.26,2.68,2.68,0,0,0,1.26-.38,3.3,3.3,0,0,0,1-.93,1.53,1.53,0,0,0,0-1.56,2.16,2.16,0,0,0-3.89.47,1.81,1.81,0,0,0,.39,1.79,1.86,1.86,0,0,0,1.31.57,2,2,0,0,0,1.89-1.46A1.6,1.6,0,0,0,150.37,49a.16.16,0,0,1,0,.07l.25-.33-.05.06.32-.25-.1.06.39-.16-.11,0,.43-.06h-.07l.44.06h0l.39.17,0,0,.34.26a.12.12,0,0,1-.05,0l.25.33,0,0,.17,1.27a.32.32,0,0,1,0-.09l-.17.4a.47.47,0,0,1,.07-.12l-.27.34a1.8,1.8,0,0,1,.2-.19l-.34.26.16-.09-.39.16.18-.05-.43.06H152l-.42,0,.13,0-.38-.16.08,0-.31-.24,0,0-.4-1.5s0,.08,0,.12l.15-.36a1.68,1.68,0,0,1-.2.34l.23-.3a1.75,1.75,0,0,1-.23.24l.28-.22a1.61,1.61,0,0,1-.28.17H152c-.12-.06-.07,0,.13.12-.07-.07-.06-.05,0,0s.08.12,0,0c.08.22.11.27.08.14l0,.34a.49.49,0,0,1,0-.17l0,.33V50a1.22,1.22,0,0,0-2.22-.94Z"/><path class="cls-2" d="M120,60.73h0a.42.42,0,0,0,.47.19h0a.44.44,0,0,0,.31-.41.59.59,0,0,0-1-.42.73.73,0,0,0,0,1,1,1,0,0,0,1,.19,1.76,1.76,0,0,0,.8-.57,3.15,3.15,0,0,0,.22-.29c-.07.1-.07.11,0,0a1.7,1.7,0,0,0,.33-.42,2.24,2.24,0,0,0-.61-2.81,1.69,1.69,0,0,0-2-.25,2.32,2.32,0,0,0-1.08,2,2.23,2.23,0,0,0,3.77,1.61,2.39,2.39,0,0,0,.71-2.36,1.86,1.86,0,0,0-1.74-1.34A2.15,2.15,0,0,0,119,59.06a1.63,1.63,0,0,0,2.41,1.38c.25-.12-.19,0-.25.06-.21,0-.18,0,.11,0s.32,0,0,0l-1.75-1.33a1.22,1.22,0,0,1,2-1.1,1.12,1.12,0,0,1,0,1.52l-2,.25c-.08-.05-.19-.22-.08-.06-.24-.34-.08-.11,0,0a2.78,2.78,0,0,0,.71.74s-.22-.21-.11-.06c-.09-.12-.08-.29-.17-.4.06.07,0,.09,0,.09s0,.07,0,0,0-.09,0,0l.33-.19c-.19.06-.1.09.28.09l.28.5a.46.46,0,0,1-.3.44l-.47-.19h0v-.39a.37.37,0,0,0,0,.38Z"/><path class="cls-2" d="M121.16,71.31a2.75,2.75,0,0,0-.78-.88,1.21,1.21,0,0,0-1.44.18,1.83,1.83,0,0,0-.23,2.16l1.47-1.91.21.08c-.08,0-.07,0,0,0s.12.1.07,0,0,0,.13.16c-.09-.15.08.17.07.18l0-.16,0,.38a.89.89,0,0,1,0-.23l0,.39a1.42,1.42,0,0,1,0-.16l-.15.36a.64.64,0,0,1,.08-.14l-.24.31a.6.6,0,0,1,.08-.08l-.31.24a.6.6,0,0,1,.13-.09l-.37.16a.76.76,0,0,1,.2-.06l-.42.06h.21l-.43-.06.21.06-.4-.17.14.09-.35-.27a1.34,1.34,0,0,1,.27.26l-.27-.34.06.1-.17-.41a.75.75,0,0,1,0,.16l-.06-.45a.89.89,0,0,1,0,.23l.06-.44a.83.83,0,0,1-.06.21l.16-.39a.71.71,0,0,1-.08.15l.25-.33-.16.17a1.59,1.59,0,0,0,1.55,2.65,2.42,2.42,0,0,0,1.58-2.84,2.27,2.27,0,0,0-2.82-1.59,2.17,2.17,0,0,0-1.66,2.22,2.15,2.15,0,0,0,2,2,1.31,1.31,0,0,0,.92-2.22c-.1-.09-.07,0,.07.12a.47.47,0,0,1,.09.28c0,.12,0,.14,0,0,0,.21,0,.26,0,.14l-1.14.87a2.41,2.41,0,0,0,.94-.23.76.76,0,0,0,.44-1.1Z"/><path class="cls-2" d="M130.21,57.54A1.92,1.92,0,0,0,128.4,59a2,2,0,0,0,1.31,2.41,2.41,2.41,0,0,0,2.77-2.49,2.27,2.27,0,0,0-1.55-2.16,2.15,2.15,0,0,0-2.42,1A2.24,2.24,0,0,0,129.7,61,1.74,1.74,0,0,0,131,57.87a.18.18,0,0,1-.07,0l.35.28,0-.06.27.35s0,0,0-.06l.17.42a.22.22,0,0,1,0-.08l.06.47a.48.48,0,0,1,0-.12l-.06.48a.42.42,0,0,1,0-.16l-.18.43a.42.42,0,0,1,.09-.14l-.29.37.09-.09-.38.29.11-.06-.45.19.15,0-.5.07h.08l-.49-.07h0l-.82-.47a.36.36,0,0,1,.11.1l-.28-.37a.54.54,0,0,1,.07.13l-.18-.44a.73.73,0,0,1,.05.2l-.06-.48a.67.67,0,0,1,0,.2l.06-.47a.73.73,0,0,1-.05.2l.18-.42a1,1,0,0,1-.1.17l.27-.35-.1.11.35-.27-.13.08.41-.18,0,0h.91l0,0,.41.18,0,0,.34.27-.06-.07.26.35a.8.8,0,0,1-.08-.16l.16.39a.19.19,0,0,1,0-.08l.06.43a.28.28,0,0,1,0-.13l-.06.41v0l-.16.37,0-.07-.24.31a.09.09,0,0,1,.06-.06,1.47,1.47,0,0,0,.39-.67,1.54,1.54,0,0,0-.08-1,1.5,1.5,0,0,0-1.37-.93Z"/><path class="cls-2" d="M129.34,72.49a1.38,1.38,0,0,0,1.86.46,2,2,0,0,0,1-1.68,1.4,1.4,0,0,0-1.38-1.38,1.94,1.94,0,0,0-2,2,2.05,2.05,0,0,0,1.49,2,1.38,1.38,0,0,0,1.6-.79,1.35,1.35,0,0,0-.56-1.7c-.15-.07.16.14.16.14s.19.29.12.16.09.32.09.22a.42.42,0,0,0,0-.12l0,.38V72l0,.39a1.49,1.49,0,0,0,0-.18c-.13.27-.16.35-.09.22a1.24,1.24,0,0,0,.16-.4c0-.14,0-.07-.1.22a.3.3,0,0,1,0-.08,1,1,0,0,1-.38.39c.11-.07,0,0-.21.08l-1.69-1c0,.14,0,.09,0-.16q0,.21,0-.15l.08-.17c-.07.11,0,.08.08-.08a1.43,1.43,0,0,0-.33.59c-.06.23.1-.14.15-.2a.9.9,0,0,0-.14,1Z"/><path class="cls-2" d="M142.14,57.63a1.53,1.53,0,0,0-1.87.24,1.75,1.75,0,0,0-.42,1.66,1.7,1.7,0,0,0,1.61,1.22,2.35,2.35,0,0,0,1.6-.7,1.57,1.57,0,0,0,.47-1.14,1.71,1.71,0,0,0-.47-1.14,2.41,2.41,0,0,0-2.4-.59,2.8,2.8,0,0,0-1.86,1.76,2.35,2.35,0,0,0-.06,1.34,2,2,0,0,0,1.92,1.41,2.44,2.44,0,0,0,1.37-.35A2.56,2.56,0,0,0,143.09,60a1.75,1.75,0,0,0-.17-1.34,1.85,1.85,0,0,0-.83-.71,1.74,1.74,0,0,0-2.17.71l0,.07a.82.82,0,0,1,.31-.33c.25-.19.07-.06,0,0l.42-.18a.72.72,0,0,1-.21,0l.47-.06h-.14l.47.06a.31.31,0,0,1-.13,0l.42.18-.13-.07.82,1.07,0-.13.06.47v-.19l-.06.47a1.16,1.16,0,0,1,0-.18l-.17.42c.09-.22.23-.22-.11.07a.93.93,0,0,0,.14-.14c-.2.23-.3.25-.12.12-.31.12-.38.15-.22.1l.12,0-.44,0h.25l-.44-.06c.17,0,.36.18-.09-.06l-.58-2.2c-.09.15-.2.19.05-.05l2.08.61a1.22,1.22,0,0,1-.11.9l-.51.51-.28.12h-.7a1.43,1.43,0,0,0,1.66-.82,1.4,1.4,0,0,0-.58-1.75Z"/><path class="cls-2" d="M150.26,58l-.55.29a2.1,2.1,0,0,0-1.07,1.86,3,3,0,0,0,.35,1.26,2.58,2.58,0,0,0,.89.88,2.45,2.45,0,0,0,2.52,0,2.5,2.5,0,0,0,1.19-2.13A2.63,2.63,0,0,0,152.37,58a2,2,0,0,0-1.38-.25,2.09,2.09,0,0,0-1.24.59,3,3,0,0,0-.82,1.33,2,2,0,0,0,2.56,2.56,2.73,2.73,0,0,0,1.31-.84l-2.61.34.06,0-.44-.34,0,0-.33-.43,0,.05-.22-.51,0,.07-.08-.58a.66.66,0,0,1,0,.14l.07-.57,0,.06.22-.51,0,.06.34-.44,0,0,.43-.33-.05,0,.51-.22-.07,0,.58-.08h-.08l.58.08-.15,0,.52.22-.07,0,.44.33-.06,0,.34.44,0-.06.21.51,0-.07.07.58v-.08L151.89,62l.55-.29a2.17,2.17,0,0,0,.77-3,2.2,2.2,0,0,0-3-.77Z"/><path class="cls-2" d="M139.66,72.16a1.43,1.43,0,0,0-1,1,1.49,1.49,0,0,0,.94,1.87,2,2,0,0,0,1.87-.5,2.37,2.37,0,0,0,.75-1.6,1.49,1.49,0,0,0-.33-.93,1.61,1.61,0,0,0-.8-.55.64.64,0,0,1,.3.17c.11.09.12.09,0,0l.14.19c.1.26.12.31.08.14a1.64,1.64,0,0,0-3-.39,1.56,1.56,0,0,0-.16,1.26A2.6,2.6,0,0,0,139.3,74a2.18,2.18,0,0,0,1.35.46l-1.48-1.13,0-.25c.05-.25.06-.32,0-.2s0,.05,0-.06a.52.52,0,0,1,.17-.26c-.13.13.06,0,.1-.07.24-.09.25-.09,0,0a.88.88,0,0,0-.22.1l.67-.18c.39,0,1,.36.82.85a.9.9,0,0,0-1.09-1.1Z"/><path class="cls-2" d="M148.07,71.64A4,4,0,0,0,146,73.37a2,2,0,0,0,.3,2.36,3.06,3.06,0,0,0,1.87.79,2.91,2.91,0,0,0,1.65-.47,3.36,3.36,0,0,0,1.14-1.2,3.33,3.33,0,0,0,.28-2.13,2,2,0,0,0-.95-1.23,2.43,2.43,0,0,0-1.59-.21,2.64,2.64,0,0,0-2.05,2.54,2.67,2.67,0,0,0,2,2.55,2.53,2.53,0,0,0,2.18-.42,2.33,2.33,0,0,0,.82-2.44A2.46,2.46,0,0,0,150.5,72a2.33,2.33,0,0,0-1.73-.23,2.44,2.44,0,0,0-1.06.6,2.19,2.19,0,0,0-.34,2.64,2.75,2.75,0,0,0,1.45,1.12l-.53-.23-.7-.69-.22-.53V73.62l1-1.32-.07,0,.52-.22-.08,0,.58-.07a.54.54,0,0,1-.18,0l.58.08c-.22-.06-.13,0,.28.19a1.28,1.28,0,0,1,.79.91l.07.57a.55.55,0,0,1,0-.18l-.08.56a1,1,0,0,1-.62.7q-.83.43-.39.36l-2.54-1.44v.08l-.07-.55v.18l.07-.55a.94.94,0,0,0,0,.16c.16-.34.2-.44.12-.29s0,.05.09-.11.08-.1,0,0,.47-.29.17-.15c0,0,.5-.14.25-.1l-.17,0c-.31.08.49,0,.25,0s.55.12.24,0l1.36,2.4a2.82,2.82,0,0,1,.07-.31c.07-.31-.17.28-.05.1a1.86,1.86,0,0,0,.13-.23l-.14.19a1.06,1.06,0,0,1,.15-.15,1.72,1.72,0,0,0,.26-2,1.71,1.71,0,0,0-1.9-.78Z"/><path class="cls-2" d="M119.83,83.47v0l-.15-.33a0,0,0,0,1,0,0l0-.39v0l.06-.42,0,0,.17-.4,0,0,.29-.38a3.32,3.32,0,0,0-.37.47,2.89,2.89,0,0,0-.28,1.19l.07-.55a1.46,1.46,0,0,1-.05.2l.21-.5a1,1,0,0,1-.08.14l.33-.43-.09.08.43-.33-.06,0,.5-.21-.11,0,.57-.07h-.12l.57.08-.11,0,.52.22L122,82l.44.34a.52.52,0,0,1-.1-.11l.34.45-.06-.1.23.53-.33-.75.22.53a1.46,1.46,0,0,1,0-.2l.08.59a.43.43,0,0,1,0-.16l-.08.58a2.36,2.36,0,0,0,0-1.29l-.22-.51a1.56,1.56,0,0,0-.55-.59,1.94,1.94,0,0,0-1.29-.46,2.36,2.36,0,0,0-1.32.46,2,2,0,0,0-.6.68,2.86,2.86,0,0,0,0,2.82,2.65,2.65,0,0,0,4.09.55,2.5,2.5,0,0,0-.57-4,2,2,0,0,0-1.8.09,1.78,1.78,0,0,0-.6.59,2.43,2.43,0,0,0-.16.37,1.43,1.43,0,0,0,.14,1Z"/><path class="cls-2" d="M132.36,80.76a1.74,1.74,0,0,0-2.18-.27,2,2,0,0,0-.93,2.29,2.2,2.2,0,0,0,2.12,1.51,2.56,2.56,0,0,0,2.13-1.19,2.25,2.25,0,0,0-.59-2.79,3,3,0,0,0-2.41-.77,2.6,2.6,0,0,0-2.15,1.79,2.85,2.85,0,0,0,.19,2.27,2.5,2.5,0,0,0,2.75,1.23A2.58,2.58,0,0,0,133.2,83a1.73,1.73,0,0,0-3.15-1.33c-.14.18.14-.18.15-.18l0,.06.06,0c.29-.23-.16,0,.19-.12s.09-.05,0,0l.48-.06h-.14l.48.06c-.09,0-.3-.09,0,0a1.21,1.21,0,0,1,.6.52c-.11-.2.1.25.09.26a1.91,1.91,0,0,0,0-.21l.07.5a.81.81,0,0,1,0-.22l-.07.5,0-.14c.05-.18,0-.1-.12.25l0-.07c.1-.15,0-.08-.17.22.15-.13.22-.14-.18.11.17-.1.09-.07-.23.08l.15,0-.49.07a1.71,1.71,0,0,1,.32,0l-.49-.06a.94.94,0,0,1,.24.06s-.47-.24-.18,0c.14.09-.33-.32-.14-.1l-.17-.22s0,.09.08.14l-.18-1.33c.14-.29.17-.36.08-.21l.17-.23c-.17.21.34-.22.1-.08.28-.11.35-.14.23-.11s-.05,0,.25,0a1.08,1.08,0,0,1,.76.33l.16.21c.12.65.17.83.17.56,0,.09-.05.44,0,.15s-.11.21-.16.28a1,1,0,0,1-1,.34,1.28,1.28,0,0,0,1.42-.59,1.33,1.33,0,0,0-.19-1.53Z"/><path class="cls-2" d="M142,81.64l-1.33-.34A1.47,1.47,0,0,0,139,83.43a2.14,2.14,0,0,0,3.3.39,2.36,2.36,0,0,0-.79-3.78,2.23,2.23,0,0,0-2.49.51,2.29,2.29,0,0,0-.49,2.46,2.18,2.18,0,0,0,2,1.34,2.24,2.24,0,0,0,1.94-1.07,1.74,1.74,0,0,0-2.73-2.1c.28-.18.35-.24.2-.16l.41-.18-.06,0,.47-.06a.57.57,0,0,1-.13,0l.47.06a.31.31,0,0,1-.13,0l.43.18a.24.24,0,0,1-.11-.06l.36.28,0,0,.28.37a.47.47,0,0,1-.07-.12l.19.44,0-.07.06.49v-.07l-.07.49a.74.74,0,0,1,0-.14l-.19.45a.54.54,0,0,1,.07-.13l-.29.38a.48.48,0,0,1,.11-.09l-.39.29.07,0-.46.19a.35.35,0,0,1,.14,0l-.51.06.29,0-.51-.07.14,0-.45-.19.12.08-.37-.29a.47.47,0,0,1,.1.1l-.28-.36a.75.75,0,0,1,.07.12l-.18-.42a.33.33,0,0,1,0,.13l-.06-.46a.33.33,0,0,1,0,.14l.06-.45c-.06.23.14-.29.19-.35a1,1,0,0,1,.59-.4c-.21.05.22,0,.23,0s-.09,0,.07,0a.75.75,0,0,1,.38.13l-.35,2.65,1.33-.47a1,1,0,0,0,.75-1,1.06,1.06,0,0,0-.75-1Z"/><path class="cls-2" d="M151,80.93a3.83,3.83,0,0,0-.65.3,1.23,1.23,0,0,0-.53,1.39,1.49,1.49,0,0,0,2.49.58,2,2,0,0,0-.21-2.82,2.71,2.71,0,0,0-2.58-.63,2.55,2.55,0,0,0-1.85,2.48A2.77,2.77,0,0,0,149,84.64a2.7,2.7,0,0,0,3.17-.47,2.63,2.63,0,0,0,.74-1.45,2.2,2.2,0,0,0-1-2.15,2,2,0,0,0-2.34.31,1.87,1.87,0,0,0-.54,1.57,1.57,1.57,0,0,0,1.1,1.31s.67.09.18,0a1.77,1.77,0,0,1-.52-.17,1.71,1.71,0,0,0,.8.22l.42-.06c-.36,0-.46,0-.3.06l-.45-.06a1.62,1.62,0,0,1-.9-.71l-.19-.43v0l.19-1.43a.53.53,0,0,1-.06.1l.31-.4a3,3,0,0,0-.62,1l.2-.48a.75.75,0,0,1-.07.12l.32-.41a1.14,1.14,0,0,1-.15.16l.41-.32a1.18,1.18,0,0,1-.19.11L150,81l-.13,0,.53-.08h-.21l.54.07-.14,0,.48.2a.41.41,0,0,1-.11-.07l.4.32-.09-.1.31.41-.1-.17.2.48a1.52,1.52,0,0,1-.06-.2l.07.54a1.22,1.22,0,0,1,0-.27l-.07.53a2,2,0,0,1,.08-.33l-.2.47a.62.62,0,0,1,.11-.17l-.3.38.1-.1-.38.3a.72.72,0,0,1,.19-.11l-.44.18a1.66,1.66,0,0,1,.21-.06l-.47.06a1.5,1.5,0,0,1,.3,0l-.46-.06.15,0c-.28-.13-.35-.16-.2-.07l.12.09a1.13,1.13,0,0,1-.53-.91l.18-.67,1.76,0,.15.55c0,.34,0,0,0-.08l.06-.33a.76.76,0,0,0-1.1-.84Z"/><path class="cls-2" d="M117.59,99.79c2.22,4.46,6.17,8.26,9.92,11.45,2.43,2.06,4.34,5.34,7.68,4.71s7.74-4.63,10.23-6.65c3.25-2.62,7.85-6.19,8.45-10.53.07-.47-.3-1.09-.86-.87-6.44,2.54-9.56,11-16.07,13.88-5.25,2.27-7-2.35-10.38-5.77a36.29,36.29,0,0,0-8.33-6.86.47.47,0,0,0-.64.64Z"/><path class="cls-2" d="M118.22,122.22c2.6-3.12,5-6.35,7.55-9.53,2.38-3,4.62-6.68,7.24-9.37,2.93-3,3.12-.69,5.25,2.08,1.26,1.63,2.51,3.27,3.78,4.89,2.76,3.52,5.7,6.89,8.44,10.44a2.71,2.71,0,1,0,4.27-3.3A120.28,120.28,0,0,0,135.47,98.7a1,1,0,0,0-1.39,0c-3.46,3.54-7.29,6.2-10.24,10.29a60.62,60.62,0,0,0-7.1,12.37c-.34.81.94,1.53,1.48.86Z"/><path class="cls-2" d="M133.57,115.33c-2.46,4.1-2,10-1.84,14.65s.17,10.59,2.65,14.77a.8.8,0,0,0,1.45-.19c1.85-4.61,1.18-10.64.91-15.54-.24-4.38,0-9.84-2.28-13.69a.52.52,0,0,0-.89,0Z"/><path class="cls-2" d="M107.9,140.61a25.25,25.25,0,0,0,6.56.28c2.52-.07,4.11-.51,6.24,1.83a26.7,26.7,0,0,1,1.83,3.23,53.73,53.73,0,0,0,10.9,11.68,1.66,1.66,0,0,0,2.25,0,109.24,109.24,0,0,0,8.51-7.86c2-2.15,4-6.7,6.61-8,2.94-1.52,8.88-.81,12.09-.85,4.45-.06,8.88.13,13.33.21,2.32,0,2.26-3.39,0-3.56a76.25,76.25,0,0,0-15.24.73c-3.33.42-8.09.12-11.26,1.38-2.63,1-4.26,3.73-6.11,5.75a89.59,89.59,0,0,1-10.18,10h2.25a63.25,63.25,0,0,1-7.59-7.5c-2-2.32-3.77-5.7-6.21-7.63-3.46-2.75-10.2-1.49-14-.09-.2.07-.25.4,0,.45Z"/><path class="cls-2" d="M117.75,163c-1,2.36-.49,5.13-.45,7.65,0,2.9-.13,6.09.84,8.85a.43.43,0,0,0,.82,0c.79-2.81.43-5.95.28-8.85-.12-2.52.24-5.36-.93-7.65a.33.33,0,0,0-.56,0Z"/><path class="cls-2" d="M117.8,162.91a55.92,55.92,0,0,0,13.12.45l-.93-1.61q-3.09,4.29-6.26,8.49c-2,2.58-4.31,5.26-5.58,8.25a.75.75,0,0,0,1.17.91c2.36-2,4.17-5,6-7.5,2.16-3.05,4.34-6.07,6.57-9.07a1.08,1.08,0,0,0-.92-1.61c-4.34.39-8.68.77-13,1.05-.34,0-.47.59-.09.64Z"/><path class="cls-2" d="M155.49,207.41c-2.29-1.16-5.13-.8-7.65-.93-2.89-.14-6-.51-8.84.29a.42.42,0,0,0,0,.81c2.76,1,5.94.81,8.84.85,2.53,0,5.29.56,7.65-.45a.33.33,0,0,0,0-.57Z"/><path class="cls-2" d="M156.25,207.83c.28-4.34.66-8.68,1.06-13a1.08,1.08,0,0,0-1.62-.92q-4.5,3.33-9.07,6.56c-2.53,1.79-5.47,3.6-7.49,6a.75.75,0,0,0,.91,1.18c3-1.27,5.66-3.63,8.24-5.58q4.22-3.18,8.49-6.26l-1.61-.93a56.38,56.38,0,0,0,.45,13.11c.06.39.62.26.64-.09Z"/><path class="cls-2" d="M117.65,189.47c4.53-.05,8.7-5.92,11.54-8.93,4.81-5.08,8.66-10.79,13.75-15.57,1.22-1.14-.8-3.05-1.79-1.79-4.17,5.3-9.26,9.27-14,14-2,2-4,4.09-6,6.11-1.71,1.71-3.47,2.77-4.35,5a.9.9,0,0,0,.86,1.13Z"/><path class="cls-2" d="M121.9,198.71l-.74,0c-2.15.12-1.16,3.42.65,2.39,6.8-3.88,12.36-10.38,18-15.75S151.45,174.53,156,168c.57-.81-.54-1.85-1.34-1.34-6.75,4.26-12.39,10-18.13,15.49-5.59,5.36-12.31,10.64-16.47,17.25l2.34.3-.14-.7a.36.36,0,0,0-.36-.28Z"/><path class="cls-2" d="M131.69,204c3.73-2.14,6.6-5.54,9.75-8.44a94.22,94.22,0,0,1,12.14-9.86,1.08,1.08,0,0,0-1.09-1.86c-8.41,4.53-18.05,9.59-22.21,18.74a1,1,0,0,0,1.41,1.42Z"/><path class="cls-2" d="M117.54,217.37c-.59,4.43.21,9,.45,13.48s.36,9,.34,13.52-.15,9-.4,13.52c-.2,3.54-1.29,7.14.73,10.23a1.19,1.19,0,0,0,1.84.24c2.65-2.77,2.19-6.81,2.4-10.47q.38-6.75.33-13.52c-.06-8.67.61-19.24-2.46-27.43a1.65,1.65,0,0,0-3.23.43Z"/><path class="cls-2" d="M118.55,218.89c5.47,1.29,11.06,2.26,16.65,3,5.8.77,10.92-.9,16.66-.82l-2.27-1.3c1.91,3.37,1.07,9.61,1.1,13.4,0,4.27.25,8.54.33,12.81.15,7.8-1.33,16.51,1.33,24,.29.83,1.6,1.2,2.05.27,3.41-7,2.46-15.61,2.27-23.25-.11-4.27-.24-8.55-.75-12.8-.53-4.45-2.76-10.79-1.54-15a2.66,2.66,0,0,0-1.83-3.22c-2.78-.89-4.9-.65-7.75-.15a35.77,35.77,0,0,1-10.58.31c-5.73-.62-10.88-1.94-15.83,1.61a.66.66,0,0,0,.16,1.2Z"/><path class="cls-2" d="M128.74,220.56c-.67,3.91-1.44,7.14-1.16,11.18.33,4.67.9,9.31,1.13,14,.22,4.33.29,8.66.11,13-.14,3.56-.7,7.41.9,10.66a1,1,0,0,0,1.62.21c4.91-5.45,3.14-17.11,2.81-23.85-.23-4.65-.48-9.38-1.13-14-.63-4.44-2.18-7.32-4.19-11.19a0,0,0,0,0-.09,0Z"/><path class="cls-2" d="M139.61,220.21c-2.33,7.17-.44,15.9-.38,23.34.06,8.35,0,16.72.79,25,.19,2,3.28,2.78,3.78.51a96.91,96.91,0,0,0,1.73-25.55c-.38-7.47.08-17-3.87-23.61a1.13,1.13,0,0,0-2,.27Z"/><path class="cls-2" d="M146.44,36.62c4.15,1.2,8.84,1.45,13.13,2.07a72.33,72.33,0,0,0,12.4.38c9.1-.25,18.05-.13,27.15-.07l-2-2c.3,9.39,0,19-.32,28.35-.32,8.8-1.5,18.2.4,26.87a1.8,1.8,0,0,0,3.44,0c1.95-8.66.82-18.07.55-26.87-.28-9.38-.51-19-.16-28.35a2,2,0,0,0-1.95-1.95c-9.13-.38-18-.75-27.15-1.59a74.49,74.49,0,0,0-12.4-.39c-4.31.33-8.9.19-13.13,1.07a1.27,1.27,0,0,0,0,2.44Z"/><path class="cls-2" d="M168.18,87.93l-.05,0,0,0c-.07-.07.08.12,0,0s.05.18,0,0c.05.25,0,.15,0,.06a.94.94,0,0,0-.26-.62,1.07,1.07,0,0,0-.63-.26h0l.23,0-.07,0a.79.79,0,0,0-.88.36,1.45,1.45,0,0,0-.11.29.9.9,0,0,0,.62,1.09,1.11,1.11,0,0,0,1.23-.45.38.38,0,0,0-.13-.51Z"/><path class="cls-2" d="M168.27,89.64A143.67,143.67,0,0,1,192,86.89a1.36,1.36,0,0,0,0-2.72c-8.48-.35-16.46,0-24.69,2.13-2.17.57-1.25,3.8.93,3.34Z"/><path class="cls-2" d="M165.06,80.39c4.07,1.64,10.09-.06,14.41-.4s8.94.38,12.85-1.3a.81.81,0,0,0,0-1.38c-4.27-2-10.14-1.1-14.76-.77-4,.29-9.57.22-12.74,2.91-.36.3-.11.8.24.94Z"/><path class="cls-2" d="M165,70.7c3.84,1.69,8.83.8,13,.71s9.54,1,13.17-1.36a.81.81,0,0,0,0-1.38c-3.67-2.2-9-1.06-13.17-1s-9.57-.3-13,2.21c-.25.19-.36.66,0,.81Z"/><path class="cls-2" d="M166,46.87c7.53-.08,16.45-1.68,23.78.14l-.34-2.54c-8.47,5.22-17,10.24-25.6,15.31a1,1,0,0,0,.73,1.75c8.8-1.66,17.91-1.93,26.61-3.92l-1.75-2.28C187,58.85,181,61.07,177.23,63c-4.35,2.23-8.78,4.29-13.25,6.28-1.35.6-.18,2.69,1.19,2q7.38-3.63,14.65-7.48c3.79-2,9.14-3.48,12.08-6.59a1.56,1.56,0,0,0-1.09-2.64c-8.93.31-18,3.12-26.7,5.12l.5,1.84a136.9,136.9,0,0,0,26.28-14.66,1.4,1.4,0,0,0-.71-2.59c-7.76-.59-16.37,1.1-24.14,1.84a.38.38,0,0,0,0,.75Z"/><path class="cls-2" d="M165,28.31c7-3.94,14-7.76,20.75-12.1,5.23-3.37,11.2-6.84,14.65-12.17l-3.14-.85c-.72,9-2.38,17.75-2.76,26.82l3.49-.94c-9-11.79-23.45-15.69-33.54-26-.94-1-3.05-.31-2.88,1.2.72,6.28-.17,11.36-1.54,17.44-.7,3.09-1.19,5.63,1,8.16,1.32,1.53,3.62-.12,3.21-1.87-.82-3.51.67-7.44.75-11a109.48,109.48,0,0,0-.06-12.68l-3.15.85c8.66,12,24,15.18,33.25,26.26,1.11,1.33,3.14.17,3.2-1.33.36-8.63.45-17.94,2.32-26.38A1.7,1.7,0,0,0,197.7,2C192.39,6.41,186.62,9.91,181,13.93c-5.75,4.15-11.39,8.45-17,12.76-.93.71-.14,2.23.94,1.62Z"/><path class="cls-2" d="M179.62,140.8c4.42-3.43,3.5-13.62,3.28-18.59-.36-7.92-.19-15.81-.25-23.75,0-2.74-4.42-2.69-4.22,0a115.89,115.89,0,0,1-.39,24.35c-.48,3.6-.7,7.15-1,10.78-.22,3-.53,4.92,1.35,7.21a.86.86,0,0,0,1.19,0Z"/><path class="cls-2" d="M185.62,98.75c-1.68,2.9,1.22,6.68,3.25,8.66a54.5,54.5,0,0,0,4.91,4c2.23,1.72,4.06,3.91,6.34,5.52.85.6,1.79-.54,1.35-1.35-1.91-3.5-5.62-6.16-8.34-9.05a46,46,0,0,1-3.86-4.61c-.89-1.25-1.51-2.58-2.88-3.34a.58.58,0,0,0-.77.21Z"/><path class="cls-2" d="M199.17,97.29c-2.92,2.41-4.38,6.43-6.83,9.33-2.63,3.11-4.64,6.8-7.43,9.74-.84.89.53,2.24,1.32,1.33,2.82-3.24,5-7,8-10,2.72-2.69,4.25-6.16,6.22-9.4.53-.87-.62-1.61-1.32-1Z"/><path class="cls-2" d="M189.59,120.34c2.33,1.74,3.82,4.57,6.06,6.49s4.53,3.83,6.85,5.67c1,.78,2.36-.54,1.39-1.39-2.44-2.14-5-4.13-7.42-6.35-2-1.87-3.8-4.16-6.27-5.47a.61.61,0,0,0-.61,1Z"/><path class="cls-2" d="M200.05,120.3c-1.63,1.2-3.5,2.13-4.81,3.69s-2.57,3.42-3.86,5.1c-1,1.36-1.81,2.53-3.46,3.26-.58.26-1.23.33-1.8.64a2.72,2.72,0,0,0-1.63,2.66,1.76,1.76,0,0,0,2.61,1.5c2.39-1,4.77-4.46,6.4-6.42,1.28-1.54,2.65-3,3.88-4.6s1.86-3.76,2.74-5.76c0,0,0-.1-.07-.07Z"/><path class="cls-2" d="M160.72,98.61c-.9,2.46,2.55,4.29,3.88,5.83,1.11,1.29,1.74,2.88,3,4.1a29.37,29.37,0,0,0,4.09,3.38,1.63,1.63,0,0,0,1.69,0,1.4,1.4,0,0,0,.34-.26,1.74,1.74,0,0,0,.26-2,9,9,0,0,0-2.82-3.44,23.69,23.69,0,0,1-3.05-3.85,8,8,0,0,0-2.83-2.37c-1.09-.59-2-1.41-3.07-2a1,1,0,0,0-1.45.58Z"/><path class="cls-2" d="M171.74,97.93c-2.53,2.78-5.24,5.48-7.57,8.43-1.79,2.27-4.09,4.1-5.14,6.86-.65,1.68,2.12,2.46,2.71.75.93-2.72,3.9-4,5.42-6.36,1.89-2.93,3.23-6.4,4.8-9.51.07-.14-.11-.29-.22-.17Z"/><path class="cls-2" d="M160.79,120.5c.21,2.21,2.42,3.66,4.1,4.89,2.82,2,5.67,4.06,8.37,6.25,1.07.87,2.6-.65,1.53-1.52-2.42-2-4.71-4.08-7-6.17-1.63-1.47-3.71-3.86-5.92-4.27-.48-.09-1.12.23-1.06.82Z"/><path class="cls-2" d="M162.18,134.4a46.75,46.75,0,0,0,7.23-6.63,42.63,42.63,0,0,0,3-3.28c1.2-1.5,1.75-3.37,3-4.87.25-.31.12-.92-.37-.88-2.88.25-5.26,3.36-7,5.41-2.42,2.85-5.38,5.6-7.34,8.78a1.09,1.09,0,0,0,1.48,1.47Z"/><path class="cls-2" d="M164.72,150c4.8,1.38,10.82.5,15.82.64,5.66.16,11.08-.67,16.69-1.2a1.42,1.42,0,0,0,.71-2.62,7.08,7.08,0,0,0-5.32-.79,104.12,104.12,0,0,1-11.16,1.44c-5.29.21-12.13-1.17-16.86,1.59a.52.52,0,0,0,.12.94Z"/><path class="cls-2" d="M162.65,158.51c6,.76,12.49.18,18.55.26,5.74.07,11.58.37,17.22-.85a.85.85,0,0,0,0-1.63c-6.27-1.16-12.77-.54-19.11-.27-5.37.23-11.86-.42-16.87,1.7-.44.19-.14.74.21.79Z"/><path class="cls-2" d="M167.78,166.28l.06-.09a.39.39,0,0,0,0-.39c-.58-1.06-1.89-.12-2.51.39a7.83,7.83,0,0,0-2.6,3.86c-.34,1.12-.51,2.67.49,3.52s2.72.27,3.75-.43a3.69,3.69,0,0,0,1.67-3.79c-.26-1.44-1.22-3.64-2.92-3.6s-3.22,2.16-3.66,3.58a4,4,0,0,0,1.33,4.4,3.88,3.88,0,0,0,5.2-.9,4.64,4.64,0,0,0-.6-6,2.47,2.47,0,0,0-3.82.49c-1.16,1.79-1.8,4.9.54,6.07s4.34-.87,5-2.88.15-4.64-2.24-5.06c-2.59-.46-4.56,2.9-2.41,4.72a2,2,0,0,0,2.28.29c.16-.1.86-.63.77-.57l-1.22.33h.26l-1.21-.33.21.12-.86-.85c.44.57-.09-.12.06,0l-.07.34c-.09.32.11.22.59-.29l1.14.31-.27-.16,1,1.36c0,.2,0,.19,0,0a1.07,1.07,0,0,1,.21-.41h-3.44c-.25-.23.47.44.39.42.12,0,0-.23.15-.3s.27.17.36.07c-.07.07.06-.79,0-.65a4.41,4.41,0,0,1,.46-.82q.62-.61.15-.36c-.22,0-.23.12,0,.28,0,.41.56.93.55,1.44a1.85,1.85,0,0,1-.62,1.2c-.59.56-1.67.9-1.84-.13a4.43,4.43,0,0,1,.75-2.22,6.57,6.57,0,0,1,1.42-1.73c.27-.22.58-.37.84-.59s.5-.3.25-.48a.3.3,0,0,0,.39-.1Z"/><path class="cls-2" d="M181.82,168a2.57,2.57,0,0,0-3.42.88,2.93,2.93,0,0,0,1.12,4c3.18,1.86,6.68-2.14,5.64-5.26a3.38,3.38,0,0,0-4.91-1.73,4.69,4.69,0,0,0-2.41,4.2,4.43,4.43,0,0,0,3.26,4,4.07,4.07,0,0,0,4.67-2.43,3.83,3.83,0,0,0-2.39-5.07,3.51,3.51,0,0,0-4.49,3.14c-.12,2,2.39,2.71,3.68,1.52a1.66,1.66,0,0,0,.26-.27,1.18,1.18,0,0,1-.37.19,1.06,1.06,0,0,1-1.16-.28c.29.31.21.14-.23-.49a.84.84,0,0,1,.07-.66.65.65,0,0,1,.27-.54c.28-.18.29-.19,0,0a1.13,1.13,0,0,1,.84-.14.84.84,0,0,1,.44.28c-.2-.21-.19-.19,0,0,.05.19,0,.74.12.28a.58.58,0,0,1-.1.42q.21-.33.06-.12a.32.32,0,0,1-.2.18c.23-.13.22-.12,0,0q-1.8,0-2-1.2c0-.18,0-.14,0,.11a3.23,3.23,0,0,1,0,.44c0-.23,0-.22,0,0l.06-.12c-.13.22-.15.25,0,.08s.19-.13.35-.12.4.26.5.42c-.17-.28,0-.19-.06-.05s0,.09.19.06c.87-.13.92-1.42.24-1.8Z"/><path class="cls-2" d="M194.91,167.41a2.94,2.94,0,0,0-.31,4.06,3.47,3.47,0,0,0,4.45.78,4.06,4.06,0,0,0,1.78-4.47,3.59,3.59,0,0,0-5.34-2.09,5.88,5.88,0,0,0-2.82,3.34,3.85,3.85,0,0,0,2.16,4.52,4,4,0,0,0,4.87-1.8,5,5,0,0,0,.86-4.55,3.36,3.36,0,0,0-4-2A4,4,0,0,0,194,167.8a4,4,0,0,0,.27,3.31,3.3,3.3,0,0,0,3.68,1.53,2.79,2.79,0,0,0,1.9-1.9,2.69,2.69,0,0,0-.7-2.64l-.38-.29q-1.5-1.31.51,2.63l.1-.17q-1,1.48-3.24.66l-1.1-1.11a1.94,1.94,0,0,1-.28-1.45c0-.33,0-.36,0-.08s-.11.37-.16.55c-.16.54.33-.51,0-.05s.37-.37.13-.13,0,.15.83-.46a2.1,2.1,0,0,1,2.29.76,1.93,1.93,0,0,1,.38,1.11c-.1.5-.12.64-.06.41s0-.09-.12.3c-.3.54-.18.23,0,0s.63-.41,0,0c.39-.25-.18,0-.36,0a2,2,0,0,1-2.1-1.26,1.29,1.29,0,0,1,0-.8l0,.15a1.43,1.43,0,0,1,1.66-1l-.14-.05a1.21,1.21,0,0,1,.55.31l.35.59c-.07.68,0,.85.07.51a1.94,1.94,0,0,0-.89-2.18,2.05,2.05,0,0,0-2.33.3Z"/><path class="cls-2" d="M163.87,183.6a2.45,2.45,0,0,0-1,2.67,3,3,0,0,0,2.83,2.09c3,0,4.64-3.88,3.16-6.28a3.7,3.7,0,0,0-4.86-1.4,3.65,3.65,0,0,0-1.75,4,3.33,3.33,0,0,0,4.78,2,3.82,3.82,0,0,0,1.89-3.54,3.07,3.07,0,0,0-.61-1.72,2.73,2.73,0,0,0-1.48-1,3.85,3.85,0,0,0-4.82,3.65,3.69,3.69,0,0,0,1.48,2.87,2.91,2.91,0,0,0,4-.21,2.5,2.5,0,0,0,.38-2.91c.28.68.25.63-.08-.16a2.29,2.29,0,0,0-.48-.64c-.65-.52-.73-.57-.22-.16a1.43,1.43,0,0,1,.33.54,1.94,1.94,0,0,1-.38,2,1.72,1.72,0,0,1-.75.46q-1.69-.18-1,0l-2.1-2.75c0,.44.09-.4.15-.55a2.15,2.15,0,0,1,2.63-1.23l1.28.75a2.5,2.5,0,0,1,.37,2.86l-.8.8c-1.37,1-2.29.2-3-.59.55.7.61.79.18.25l-.16-.4a3,3,0,0,1,.08.32c0-.42-.06-.53-.07-.31s0,.11,0-.3a1,1,0,0,1,.23-.44c.14-.17.14-.18,0,0s-.12.14,0,0a1.23,1.23,0,0,1,1.28-.09.56.56,0,0,1,.35.27c.07.45.12.54.13.29a1.37,1.37,0,0,0-2-1.17Z"/><path class="cls-2" d="M182.65,181a2.91,2.91,0,0,0-3.22.78,2.82,2.82,0,0,0,1.49,4.25c2.12.64,3.89-1.28,4.05-3.24a3.7,3.7,0,0,0-2.79-3.84,3.85,3.85,0,0,0-4.59,2.64,3.94,3.94,0,0,0,2.81,4.71,4.11,4.11,0,0,0,4.8-3,3.13,3.13,0,0,0-1.4-3.52,3.48,3.48,0,0,0-3.42.11c-1.82,1.08-3.19,3.32-2,5.38a2.83,2.83,0,0,0,3.81,1.23,2.54,2.54,0,0,0,1.16-1.49,2.25,2.25,0,0,0-.58-2.1l.57,1a4.07,4.07,0,0,0-.5-1.08c-.23-.3-.26-.34-.09-.11a.78.78,0,0,1,.23.57,1.65,1.65,0,0,1-.34,1.58c.25-.26-.07.09-.17.1.08,0,.21-.13.28-.17s.57-.26.1-.07c-.23.08-.27.11-.14.06.6-.17.07-.24-1.57-.22l-1-1-.18-.41v-1.44c-.08.48.31-.47,0-.05a1.42,1.42,0,0,1,1-.64,1.49,1.49,0,0,1,1.13.22c.3.27.37.33.23.19s-.09-.07.18.23a1.06,1.06,0,0,1,.16.83,1.12,1.12,0,0,1-.18.87c-.29.35-.34.42-.16.22l-.32.24c.23-.13.15-.1-.25.09l-.42,0c.28,0,.19,0-.26-.06a1.43,1.43,0,0,1-.84-.62c-.12-.35-.15-.43-.1-.25s0,.09,0-.27c0,.2,0,.19,0,0a.82.82,0,0,1,.14-.45,1.09,1.09,0,0,1,1-.52,1.3,1.3,0,0,1,1.16.63l-.06-.11c.1.24.12.27.07.07l0-.11c.16.06-.12.48,0,.17a4.8,4.8,0,0,1,.44-.68.53.53,0,0,0-.31-.76Z"/><path class="cls-2" d="M196.48,181.35a2.39,2.39,0,1,0,.69,4.67,3,3,0,0,0,2.06-3.72,3.23,3.23,0,0,0-4-2.16,3.65,3.65,0,0,0-2.39,4.52,4.47,4.47,0,0,0,3.12,3.1,3.78,3.78,0,0,0,4.58-2.63,3.82,3.82,0,0,0-3.56-4.75c-2.67-.1-5,3-3.49,5.44a3.54,3.54,0,0,0,3.53,1.66,3.33,3.33,0,0,0,2-1,3.12,3.12,0,0,0,.77-3,2.82,2.82,0,0,0-3.47-2c-.26.1-.53.21-.79.33-.89.64-.77.62.36-.08l.77-.11h-.14l.78.1,1.56,1.63V185l0-.13a1.37,1.37,0,0,1-.59.87,1,1,0,0,1-.63.49c-.29.1-.32.12-.12.07l-.79.1a.77.77,0,0,1,.26,0l-.81-.11a2.44,2.44,0,0,1-1.51-1.56c0,.12.07.23.1.35l-.11-.8a.88.88,0,0,1,0,.23l.1-.79a2.32,2.32,0,0,1,1.53-1.44c-.38.12.54,0,.68,0,.56.08.13,0,0,0a.91.91,0,0,1,.66.39l-.14-.13c-.14-.16-.06-.06.23.29-.24-.33,0,.13.08.31a1.43,1.43,0,0,1-2.79.62,1.47,1.47,0,0,1,.38-1.34c.24-.23,1.06-.46,0-.1a1.21,1.21,0,0,1,.86-.06.74.74,0,0,1,.61.38l.07.12c.15.11-.13.25.05,0,0-.06.09-.19.13-.26a.75.75,0,0,0-.64-1.13Z"/><path class="cls-2" d="M163.88,196.37c6,.51,12.23-.84,18.3-.84s12.25,0,18.38.27c3.06.14,3.09-4.77,0-4.79a162.31,162.31,0,0,0-19.35.82c-5.77.66-12.1.64-17.58,2.7a.94.94,0,0,0,.25,1.84Z"/><path class="cls-2" d="M162,195.87a38.12,38.12,0,0,0-1.16,4.38c-.32,1.28-.71,2.35,0,3.58s3.18,1.17,3.48-.45a26.19,26.19,0,0,0,.78-7.09,1.57,1.57,0,0,0-3.06-.42Z"/><path class="cls-2" d="M173.12,195.22a12,12,0,0,0-1.72,6.89c.06,2.78,4.44,2.78,4.33,0a55.68,55.68,0,0,0-.39-6.6c-.19-1.12-1.69-1-2.22-.29Z"/><path class="cls-2" d="M184.75,193.06a16.91,16.91,0,0,0-1.39,8.38c.29,2.14,3.95,1.65,3.78-.51a28.38,28.38,0,0,0-1.31-7.87.57.57,0,0,0-1.08,0Z"/><path class="cls-2" d="M198.16,193.56c-.38,1.58-.47,3.29-.75,4.91a9.53,9.53,0,0,0,.33,4.94,2.26,2.26,0,0,0,1.59,1.59l.36.06a1.78,1.78,0,0,0,1.69-.44c1.24-1.5.72-3.68.66-5.53s.19-4.18-.84-5.92a1.68,1.68,0,0,0-3,.39Z"/><path class="cls-2" d="M163.36,219.43c5,3.15,12.56,2.11,18.26,2.12s13.27,1.06,18.44-1.41c1.19-.57.64-2.09-.32-2.49-2.71-1.13-5.35-.76-8.25-.79-3.62,0-7.24-.18-10.85-.26-5.5-.12-12.21-1.48-17.28,1.05a1,1,0,0,0,0,1.78Z"/><path class="cls-2" d="M199.7,217.53c-5.4,1.84-10.38,5.12-15.22,8.1-6,3.69-12.23,6.89-18.11,10.8a2.08,2.08,0,0,0,2.1,3.59c4-2.17,10.7-1.59,15.12-1.59,4.77,0,9.53.08,14.3.22l-1.24-3c-2.36,2.15-5.08,3.48-7.65,5.31s-5.08,3.93-7.87,5.66c-2.46,1.53-5,3-7.33,4.66-2.9,2.06-5.35,4.86-8.38,6.69a1.82,1.82,0,0,0,1.4,3.31c5.68-1.63,12.07-1.27,18-1.2,2.48,0,5,.24,7.44.29,2.84.06,6.27-1.14,9-.74,1.92.28,2.07-2.63.34-2.49-2.82.24-5.59-1.11-8.42-1.27-3.07-.17-6.21,0-9.29,0-6,0-11.6,1.21-17.52,1.88l1.28,3.08c2.89-2.27,6.52-3.59,9.54-5.71,2.54-1.78,4.9-3.79,7.37-5.65,5-3.79,10.42-6.49,14.6-11.34a1.76,1.76,0,0,0-1.23-3c-4.78.19-9.54.45-14.3.84s-11.17,1.75-15.62.21l.5,3.8c6.55-3.38,12.67-7.42,19.05-11.08,4.86-2.79,10.26-5.45,12.71-10.73.15-.33-.11-.83-.53-.68Z"/><path class="cls-2" d="M165.17,260.44c-1.91,1-1.82,4.09-1.7,5.92a2.18,2.18,0,1,0,4.3-.58c-.3-1.68.14-3.77-1-5.14a1.31,1.31,0,0,0-1.56-.2Z"/><path class="cls-2" d="M171.92,260a8,8,0,0,0-.64,3.4,12.49,12.49,0,0,0,.38,3.67c.45,1.22,2.67,1.63,2.9,0a11.35,11.35,0,0,0-1.7-7.2.52.52,0,0,0-.94.13Z"/><path class="cls-2" d="M177.65,259.71c-.82,2.49-.43,5.6-.09,8.15a3.23,3.23,0,0,0,2.21,2.9,2.69,2.69,0,0,0,2.32-.3,3,3,0,0,0,1.49-2.6c.1-2.56.33-5.71-.56-8.15a2.81,2.81,0,0,0-5.37,0Z"/><path class="cls-2" d="M188.65,260.89a15.67,15.67,0,0,1-1.15,3.4,10,10,0,0,0-.42,2.63c-.1,1.46.27,3.69,2.2,3.67,1.7,0,2.12-2,2-3.29a12.77,12.77,0,0,0-.68-2.87,12.28,12.28,0,0,1-1.26-3.54.33.33,0,0,0-.66,0Z"/><path class="cls-2" d="M195.2,258.72c-1.81,2.78-2.56,7.08-.68,10.07a3,3,0,0,0,5,0c1.69-3.12.9-7.25-1-10.07a2,2,0,0,0-3.4,0Z"/><path class="cls-2" d="M-18.5,7C-13.56,8.2-8,7.25-3,7.25c5.24,0,10.9,1.09,16.05.5,1.43-.16,1.95-2.24.36-2.67C8.67,3.79,2.94,4.18-2,4.13c-5.3-.06-11.52-.6-16.5,1.47A.71.71,0,0,0-18.5,7Z"/><path class="cls-2" d="M-19.63,17.51c5.13,1.07,10.73.75,16,.79s11.13,1,16-.55a1.23,1.23,0,0,0,0-2.35c-4.85-1.57-10.93-.62-16-.61-5.24,0-10.82-.32-16,.73a1,1,0,0,0,0,2Z"/><path class="cls-2" d="M-18,25.57c11.32.52,22.64.83,34,1.08,2.44.06,3.05-3.81.58-4.33C5.3,20-6.87,22.79-18,24.26a.66.66,0,0,0,0,1.31Z"/><path class="cls-2" d="M-18.06,36.77c5.87.35,11.71.82,17.59,1,5.35.18,11,.8,16.24.07,2.28-.31,2-3.82,0-4.34-10.72-2.78-23.39-.78-34.12,1.14-1.25.22-.86,2.05.29,2.12Z"/><path class="cls-2" d="M5,51.43A1.93,1.93,0,0,0,7,50.57,2.16,2.16,0,0,0,6.72,48a2.48,2.48,0,0,0-2.48-.72,2.85,2.85,0,0,0-1.84,2,2,2,0,0,0,.9,2.21,2.76,2.76,0,0,0,2.78,0,2.41,2.41,0,0,0,1-3,2,2,0,0,0-2.32-1.13,1.87,1.87,0,0,0-1.39,1.77,1.81,1.81,0,0,0,.87,1.57,1.7,1.7,0,0,0,1.27.17l.4-.17c.55-.4.43-.36-.35.12l-.46.07h0l-.47-.06h0l-.79-.46,0,0-.28-.37,0,0-.19-.44v-.95a2.2,2.2,0,0,0,0,1.11l-.07-.51a.62.62,0,0,1,0,.13l.07-.51a.65.65,0,0,1,0,.13l.19-.46a.26.26,0,0,1-.07.11l.3-.39-.1.1.39-.3-.19.1L4.46,48l-.21,0L4.76,48H4.55l.52.07-.14,0,.46.19a.67.67,0,0,1-.12-.06l.89,2.2.06-.16-.2.47a2.53,2.53,0,0,1,.13-.22l-.31.4L6,50.67,5.62,51l.65-.49-.39.3L6,50.72l-.45.19.14,0-.48.07h.14l-.47-.07c.2,0,.22.13-.13-.08a1.25,1.25,0,0,1-.57-1,1,1,0,0,1,.29-.73l.19-.14-.32.25A1.35,1.35,0,0,0,5,51.43Z"/><path class="cls-2" d="M13.09,49.07a1.86,1.86,0,0,0-.2,1.4,1.58,1.58,0,0,0,1.46,1.26,2.68,2.68,0,0,0,1.26-.38,3.3,3.3,0,0,0,1-.93,1.53,1.53,0,0,0,0-1.56,2.16,2.16,0,0,0-3.89.47,1.81,1.81,0,0,0,.39,1.79,1.86,1.86,0,0,0,1.31.57,2,2,0,0,0,1.89-1.46A1.6,1.6,0,0,0,13.37,49a.16.16,0,0,1,0,.07l.25-.33-.05.06.32-.25-.1.06.39-.16-.11,0,.43-.06h-.07l.44.06h0l.39.17,0,0,.34.26a.12.12,0,0,1-.05,0l.25.33,0,0,.17,1.27a.32.32,0,0,1,0-.09l-.17.4a.47.47,0,0,1,.07-.12l-.27.34a1.8,1.8,0,0,1,.2-.19l-.34.26.16-.09-.39.16.18-.05-.43.06H15l-.42,0,.13,0-.38-.16.08,0-.31-.24,0,0-.4-1.5s0,.08,0,.12l.15-.36a1.68,1.68,0,0,1-.2.34l.23-.3a1.75,1.75,0,0,1-.23.24l.28-.22a1.61,1.61,0,0,1-.28.17H15c-.12-.06-.07,0,.13.12-.07-.07-.06-.05,0,0s.08.12,0,0c.08.22.11.27.08.14l0,.34a.49.49,0,0,1,0-.17l0,.33V50a1.22,1.22,0,0,0-2.22-.94Z"/><path class="cls-2" d="M5.14,57.63a1.53,1.53,0,0,0-1.87.24,1.75,1.75,0,0,0-.42,1.66,1.7,1.7,0,0,0,1.61,1.22,2.35,2.35,0,0,0,1.6-.7,1.57,1.57,0,0,0,.47-1.14,1.71,1.71,0,0,0-.47-1.14,2.41,2.41,0,0,0-2.4-.59A2.8,2.8,0,0,0,1.8,58.94a2.35,2.35,0,0,0-.06,1.34,2,2,0,0,0,1.92,1.41A2.44,2.44,0,0,0,5,61.34,2.56,2.56,0,0,0,6.09,60a1.75,1.75,0,0,0-.17-1.34,1.85,1.85,0,0,0-.83-.71,1.74,1.74,0,0,0-2.17.71l0,.07a.82.82,0,0,1,.31-.33c.25-.19.07-.06,0,0l.42-.18a.72.72,0,0,1-.21,0l.47-.06H3.73l.47.06a.31.31,0,0,1-.13,0l.42.18-.13-.07.82,1.07,0-.13.06.47v-.19L5.15,60a1.16,1.16,0,0,1,0-.18L5,60.23c.09-.22.23-.22-.11.07a.93.93,0,0,0,.14-.14c-.2.23-.3.25-.12.12-.31.12-.38.15-.22.1l.12,0-.44,0h.25l-.44-.06c.17,0,.36.18-.09-.06l-.58-2.2c-.09.15-.2.19.05-.05l2.08.61a1.22,1.22,0,0,1-.11.9L5,60.07l-.28.12h-.7a1.43,1.43,0,0,0,1.66-.82,1.4,1.4,0,0,0-.58-1.75Z"/><path class="cls-2" d="M13.26,58l-.55.29a2.1,2.1,0,0,0-1.07,1.86A3,3,0,0,0,12,61.39a2.58,2.58,0,0,0,.89.88,2.45,2.45,0,0,0,2.52,0,2.5,2.5,0,0,0,1.19-2.13A2.63,2.63,0,0,0,15.37,58,2,2,0,0,0,14,57.74a2.09,2.09,0,0,0-1.24.59,3,3,0,0,0-.82,1.33,2,2,0,0,0,2.56,2.56,2.73,2.73,0,0,0,1.31-.84l-2.61.34.06,0-.44-.34,0,0L12.52,61l0,.05-.22-.51,0,.07-.08-.58a.66.66,0,0,1,0,.14l.07-.57,0,.06.22-.51,0,.06.34-.44,0,0,.43-.33-.05,0,.51-.22-.07,0,.58-.08h-.08l.58.08-.15,0,.52.22-.07,0,.44.33-.06,0,.34.44,0-.06.21.51,0-.07.07.58v-.08L14.89,62l.55-.29a2.17,2.17,0,0,0,.77-3,2.2,2.2,0,0,0-3-.77Z"/><path class="cls-2" d="M2.66,72.16a1.43,1.43,0,0,0-1,1A1.49,1.49,0,0,0,2.57,75a2,2,0,0,0,1.87-.5,2.37,2.37,0,0,0,.75-1.6A1.49,1.49,0,0,0,4.86,72a1.61,1.61,0,0,0-.8-.55.64.64,0,0,1,.3.17c.11.09.12.09,0,0l.14.19c.1.26.12.31.08.14a1.64,1.64,0,0,0-3-.39,1.56,1.56,0,0,0-.16,1.26A2.6,2.6,0,0,0,2.3,74a2.18,2.18,0,0,0,1.35.46L2.17,73.33l0-.25c.05-.25.06-.32,0-.2s0,.05,0-.06a.52.52,0,0,1,.17-.26c-.13.13.06,0,.1-.07.24-.09.25-.09,0,0a.88.88,0,0,0-.22.1l.67-.18c.39,0,1,.36.82.85a.9.9,0,0,0-1.09-1.1Z"/><path class="cls-2" d="M11.07,71.64A4,4,0,0,0,9,73.37a2,2,0,0,0,.3,2.36,3.06,3.06,0,0,0,1.87.79,2.91,2.91,0,0,0,1.65-.47A3.36,3.36,0,0,0,14,74.85a3.33,3.33,0,0,0,.28-2.13,2,2,0,0,0-1-1.23,2.43,2.43,0,0,0-1.59-.21,2.64,2.64,0,0,0-2,2.54,2.67,2.67,0,0,0,2,2.55A2.53,2.53,0,0,0,13.84,76a2.33,2.33,0,0,0,.82-2.44A2.46,2.46,0,0,0,13.5,72a2.33,2.33,0,0,0-1.73-.23,2.44,2.44,0,0,0-1.06.6A2.19,2.19,0,0,0,10.37,75a2.75,2.75,0,0,0,1.45,1.12l-.53-.23-.7-.69-.22-.53V73.62l1-1.32-.07,0,.52-.22-.08,0,.58-.07a.54.54,0,0,1-.18,0l.58.08c-.22-.06-.13,0,.28.19a1.28,1.28,0,0,1,.79.91l.07.57a.55.55,0,0,1,0-.18l-.08.56a1,1,0,0,1-.62.7q-.82.43-.39.36l-2.54-1.44v.08l-.07-.55v.18l.07-.55a.94.94,0,0,0,0,.16c.16-.34.2-.44.12-.29s0,.05.09-.11.08-.1,0,0,.47-.29.17-.15c0,0,.5-.14.25-.1l-.17,0c-.31.08.49,0,.25,0s.55.12.24,0l1.36,2.4a2.82,2.82,0,0,1,.07-.31c.07-.31-.17.28,0,.1a1.86,1.86,0,0,0,.13-.23l-.14.19a1.06,1.06,0,0,1,.15-.15,1.72,1.72,0,0,0,.26-2,1.71,1.71,0,0,0-1.9-.78Z"/><path class="cls-2" d="M5,81.64,3.65,81.3A1.47,1.47,0,0,0,2,83.43a2.14,2.14,0,0,0,3.3.39A2.36,2.36,0,0,0,4.52,80,2.23,2.23,0,0,0,2,80.55,2.29,2.29,0,0,0,1.54,83a2.18,2.18,0,0,0,2,1.34,2.24,2.24,0,0,0,1.94-1.07,1.74,1.74,0,0,0-2.73-2.1c.28-.18.35-.24.2-.16l.41-.18-.06,0,.47-.06a.57.57,0,0,1-.13,0l.47.06a.31.31,0,0,1-.13,0L4.4,81A.24.24,0,0,1,4.29,81l.36.28,0,0,.28.37a.47.47,0,0,1-.07-.12l.19.44,0-.07.06.49v-.07L5,82.72a.74.74,0,0,1,0-.14L4.83,83a.54.54,0,0,1,.07-.13l-.29.38a.48.48,0,0,1,.11-.09l-.39.29.07,0-.46.19a.35.35,0,0,1,.14,0l-.51.06.29,0-.51-.07.14,0L3,83.48l.12.08-.37-.29a.47.47,0,0,1,.1.1L2.61,83a.75.75,0,0,1,.07.12l-.18-.42a.33.33,0,0,1,0,.13l-.06-.46a.33.33,0,0,1,0,.14l.06-.45c-.06.23.14-.29.19-.35a1,1,0,0,1,.59-.4c-.21.05.22,0,.23,0s-.09,0,.07,0a.75.75,0,0,1,.38.13L3.65,84.1,5,83.63a1,1,0,0,0,.75-1,1.06,1.06,0,0,0-.75-1Z"/><path class="cls-2" d="M14,80.93a3.83,3.83,0,0,0-.65.3,1.23,1.23,0,0,0-.53,1.39,1.49,1.49,0,0,0,2.49.58,2,2,0,0,0-.21-2.82,2.71,2.71,0,0,0-2.58-.63,2.55,2.55,0,0,0-1.85,2.48A2.77,2.77,0,0,0,12,84.64a2.7,2.7,0,0,0,3.17-.47A2.63,2.63,0,0,0,16,82.72a2.2,2.2,0,0,0-1-2.15,2,2,0,0,0-2.34.31A1.87,1.87,0,0,0,12,82.45a1.57,1.57,0,0,0,1.1,1.31s.67.09.18,0a1.77,1.77,0,0,1-.52-.17,1.71,1.71,0,0,0,.8.22l.42-.06c-.36,0-.46,0-.3.06l-.45-.06a1.62,1.62,0,0,1-.9-.71l-.19-.43v0l.19-1.43a.53.53,0,0,1-.06.1l.31-.4A3,3,0,0,0,12,82l.2-.48a.75.75,0,0,1-.07.12l.32-.41a1.14,1.14,0,0,1-.15.16l.41-.32a1.18,1.18,0,0,1-.19.11L13,81l-.13,0,.53-.08h-.21l.54.07-.14,0,.48.2a.41.41,0,0,1-.11-.07l.4.32-.09-.1.31.41-.1-.17.2.48a1.52,1.52,0,0,1-.06-.2l.07.54a1.22,1.22,0,0,1,0-.27l-.07.53a2,2,0,0,1,.08-.33l-.2.47a.62.62,0,0,1,.11-.17l-.3.38a.94.94,0,0,1,.1-.1l-.38.3a.72.72,0,0,1,.19-.11l-.44.18a1.66,1.66,0,0,1,.21-.06l-.47.06a1.5,1.5,0,0,1,.3,0l-.46-.06.15,0c-.28-.13-.35-.16-.2-.07l.12.09a1.13,1.13,0,0,1-.53-.91l.18-.67,1.76,0,.15.55c0,.34,0,0,0-.08l.06-.33a.76.76,0,0,0-1.1-.84Z"/><path class="cls-2" d="M-19.41,99.79c2.22,4.46,6.17,8.26,9.92,11.45,2.43,2.06,4.34,5.34,7.68,4.71s7.74-4.63,10.23-6.65c3.25-2.62,7.85-6.19,8.45-10.53.07-.47-.3-1.09-.86-.87-6.44,2.54-9.56,11-16.07,13.88-5.25,2.27-7-2.35-10.38-5.77a36.29,36.29,0,0,0-8.33-6.86.47.47,0,0,0-.64.64Z"/><path class="cls-2" d="M-18.78,122.22c2.6-3.12,5-6.35,7.55-9.53,2.38-3,4.62-6.68,7.24-9.37,2.93-3,3.12-.69,5.25,2.08C2.52,107,3.77,108.67,5,110.29c2.76,3.52,5.7,6.89,8.44,10.44a2.71,2.71,0,1,0,4.27-3.3A120.28,120.28,0,0,0-1.53,98.7a1,1,0,0,0-1.39,0c-3.46,3.54-7.29,6.2-10.24,10.29a60.62,60.62,0,0,0-7.1,12.37c-.34.81.94,1.53,1.48.86Z"/><path class="cls-2" d="M-3.43,115.33c-2.46,4.1-2,10-1.84,14.65s.17,10.59,2.65,14.77a.8.8,0,0,0,1.45-.19C.68,140,0,133.92-.26,129c-.24-4.38,0-9.84-2.28-13.69a.52.52,0,0,0-.89,0Z"/><path class="cls-2" d="M-29.1,140.61a25.25,25.25,0,0,0,6.56.28c2.52-.07,4.11-.51,6.24,1.83A26.7,26.7,0,0,1-14.47,146a53.73,53.73,0,0,0,10.9,11.68,1.66,1.66,0,0,0,2.25,0,109.24,109.24,0,0,0,8.51-7.86c2-2.15,4-6.7,6.61-8,2.94-1.52,8.88-.81,12.09-.85,4.45-.06,8.88.13,13.33.21,2.32,0,2.26-3.39,0-3.56a76.25,76.25,0,0,0-15.24.73c-3.33.42-8.09.12-11.26,1.38-2.63,1-4.26,3.73-6.11,5.75a89.59,89.59,0,0,1-10.18,10h2.25a63.25,63.25,0,0,1-7.59-7.5c-1.95-2.32-3.77-5.7-6.21-7.63-3.46-2.75-10.2-1.49-14-.09-.2.07-.25.4,0,.45Z"/><path class="cls-2" d="M18.49,207.41c-2.29-1.16-5.13-.8-7.65-.93-2.89-.14-6-.51-8.84.29a.42.42,0,0,0,0,.81c2.76,1,5.94.81,8.84.85,2.53,0,5.29.56,7.65-.45a.33.33,0,0,0,0-.57Z"/><path class="cls-2" d="M19.25,207.83c.28-4.34.66-8.68,1.06-13a1.08,1.08,0,0,0-1.62-.92q-4.5,3.33-9.07,6.56c-2.53,1.79-5.47,3.6-7.49,6A.75.75,0,0,0,3,207.58C6,206.31,8.7,204,11.28,202q4.22-3.18,8.49-6.26l-1.61-.93a56.38,56.38,0,0,0,.45,13.11c.06.39.62.26.64-.09Z"/><path class="cls-2" d="M-19.35,189.47c4.53-.05,8.7-5.92,11.54-8.93C-3,175.46.85,169.75,5.94,165c1.22-1.14-.8-3.05-1.79-1.79-4.17,5.3-9.26,9.27-14,14-2,2-4,4.09-6,6.11-1.71,1.71-3.47,2.77-4.35,5a.9.9,0,0,0,.86,1.13Z"/><path class="cls-2" d="M-15.1,198.71l-.74,0c-2.15.12-1.16,3.42.65,2.39,6.8-3.88,12.36-10.38,18-15.75S14.45,174.53,19,168c.57-.81-.54-1.85-1.34-1.34-6.75,4.26-12.39,10-18.13,15.49s-12.31,10.64-16.47,17.25l2.34.3-.14-.7a.36.36,0,0,0-.36-.28Z"/><path class="cls-2" d="M-5.31,204c3.73-2.14,6.6-5.54,9.75-8.44a94.22,94.22,0,0,1,12.14-9.86,1.08,1.08,0,0,0-1.09-1.86c-8.41,4.53-18,9.59-22.21,18.74A1,1,0,0,0-5.31,204Z"/><path class="cls-2" d="M-18.45,218.89c5.47,1.29,11.06,2.26,16.65,3,5.8.77,10.92-.9,16.66-.82l-2.27-1.3c1.91,3.37,1.07,9.61,1.1,13.4,0,4.27.25,8.54.33,12.81.15,7.8-1.33,16.51,1.33,24,.29.83,1.6,1.2,2,.27,3.41-7,2.46-15.61,2.27-23.25-.11-4.27-.24-8.55-.75-12.8-.53-4.45-2.76-10.79-1.54-15a2.66,2.66,0,0,0-1.83-3.22c-2.78-.89-4.9-.65-7.75-.15a35.77,35.77,0,0,1-10.58.31c-5.73-.62-10.88-1.94-15.83,1.61a.66.66,0,0,0,.16,1.2Z"/><path class="cls-2" d="M2.61,220.21c-2.33,7.17-.44,15.9-.38,23.34.06,8.35,0,16.72.79,25,.19,2,3.28,2.78,3.78.51a96.91,96.91,0,0,0,1.73-25.55c-.38-7.47.08-17-3.87-23.61a1.13,1.13,0,0,0-2.05.27Z"/><path class="cls-2" d="M9.44,36.62c4.15,1.2,8.84,1.45,13.13,2.07a72.33,72.33,0,0,0,12.4.38c9.1-.25,18.05-.13,27.15-.07l-2-2c.3,9.39,0,19-.32,28.35-.32,8.8-1.5,18.2.4,26.87a1.8,1.8,0,0,0,3.44,0c1.95-8.66.82-18.07.55-26.87C64,56,63.72,46.43,64.07,37a2,2,0,0,0-1.95-1.95c-9.13-.38-18-.75-27.15-1.59a74.49,74.49,0,0,0-12.4-.39c-4.31.33-8.9.19-13.13,1.07a1.27,1.27,0,0,0,0,2.44Z"/><path class="cls-2" d="M31.18,87.93l-.05,0,0,0c-.07-.07.08.12,0,0s0,.18,0,0c0,.25,0,.15,0,.06a.94.94,0,0,0-.26-.62,1.07,1.07,0,0,0-.63-.26h0l.23,0-.07,0a.79.79,0,0,0-.88.36,1.45,1.45,0,0,0-.11.29.9.9,0,0,0,.62,1.09,1.11,1.11,0,0,0,1.23-.45.38.38,0,0,0-.13-.51Z"/><path class="cls-2" d="M31.27,89.64A143.67,143.67,0,0,1,55,86.89a1.36,1.36,0,0,0,0-2.72c-8.48-.35-16.46,0-24.69,2.13-2.17.57-1.25,3.8.93,3.34Z"/><path class="cls-2" d="M28.06,80.39c4.07,1.64,10.09-.06,14.41-.4s8.94.38,12.85-1.3a.81.81,0,0,0,0-1.38c-4.27-2-10.14-1.1-14.76-.77-4,.29-9.57.22-12.74,2.91-.36.3-.11.8.24.94Z"/><path class="cls-2" d="M28,70.7c3.84,1.69,8.83.8,13,.71s9.54,1,13.17-1.36a.81.81,0,0,0,0-1.38c-3.67-2.2-9-1.06-13.17-1s-9.57-.3-13,2.21c-.25.19-.36.66,0,.81Z"/><path class="cls-2" d="M29,46.87c7.53-.08,16.45-1.68,23.78.14l-.34-2.54c-8.47,5.22-17,10.24-25.6,15.31a1,1,0,0,0,.73,1.75c8.8-1.66,17.91-1.93,26.61-3.92l-1.75-2.28C50,58.85,44,61.07,40.23,63c-4.35,2.23-8.78,4.29-13.25,6.28-1.35.6-.18,2.69,1.19,2q7.38-3.63,14.65-7.48c3.79-2,9.14-3.48,12.08-6.59a1.56,1.56,0,0,0-1.09-2.64c-8.93.31-18,3.12-26.7,5.12l.5,1.84A136.9,136.9,0,0,0,53.89,46.87a1.4,1.4,0,0,0-.71-2.59c-7.76-.59-16.37,1.1-24.14,1.84a.38.38,0,0,0,0,.75Z"/><path class="cls-2" d="M28,28.31c7-3.94,14-7.76,20.75-12.1C53.93,12.84,59.9,9.37,63.35,4l-3.14-.85c-.72,9-2.38,17.75-2.76,26.82l3.49-.94C52,17.28,37.49,13.38,27.4,3c-.94-1-3-.31-2.88,1.2.72,6.28-.17,11.36-1.54,17.44-.7,3.09-1.19,5.63,1,8.16,1.32,1.53,3.62-.12,3.21-1.87-.82-3.51.67-7.44.75-11A109.48,109.48,0,0,0,27.9,4.23l-3.15.85c8.66,12,24,15.18,33.25,26.26,1.11,1.33,3.14.17,3.2-1.33.36-8.63.45-17.94,2.32-26.38A1.7,1.7,0,0,0,60.7,2C55.39,6.41,49.62,9.91,44,13.93c-5.75,4.15-11.39,8.45-17,12.76-.93.71-.14,2.23.94,1.62Z"/><path class="cls-2" d="M42.62,140.8c4.42-3.43,3.5-13.62,3.28-18.59-.36-7.92-.19-15.81-.25-23.75,0-2.74-4.42-2.69-4.22,0A115.89,115.89,0,0,1,41,122.81c-.48,3.6-.7,7.15-1,10.78-.22,3-.53,4.92,1.35,7.21a.86.86,0,0,0,1.19,0Z"/><path class="cls-2" d="M48.62,98.75c-1.68,2.9,1.22,6.68,3.25,8.66a54.5,54.5,0,0,0,4.91,4c2.23,1.72,4.06,3.91,6.34,5.52.85.6,1.79-.54,1.35-1.35-1.91-3.5-5.62-6.16-8.34-9.05a46,46,0,0,1-3.86-4.61c-.89-1.25-1.51-2.58-2.88-3.34a.58.58,0,0,0-.77.21Z"/><path class="cls-2" d="M62.17,97.29c-2.92,2.41-4.38,6.43-6.83,9.33-2.63,3.11-4.64,6.8-7.43,9.74-.84.89.53,2.24,1.32,1.33,2.82-3.24,5-7,8-10,2.72-2.69,4.25-6.16,6.22-9.4.53-.87-.62-1.61-1.32-1Z"/><path class="cls-2" d="M52.59,120.34c2.33,1.74,3.82,4.57,6.06,6.49s4.53,3.83,6.85,5.67c1,.78,2.36-.54,1.39-1.39-2.44-2.14-5-4.13-7.42-6.35-2-1.87-3.8-4.16-6.27-5.47a.61.61,0,0,0-.61,1Z"/><path class="cls-2" d="M63.05,120.3c-1.63,1.2-3.5,2.13-4.81,3.69s-2.57,3.42-3.86,5.1c-1.05,1.36-1.81,2.53-3.46,3.26-.58.26-1.23.33-1.8.64a2.72,2.72,0,0,0-1.63,2.66,1.76,1.76,0,0,0,2.61,1.5c2.39-1,4.77-4.46,6.4-6.42,1.28-1.54,2.65-3,3.88-4.6s1.86-3.76,2.74-5.76c0,0,0-.1-.07-.07Z"/><path class="cls-2" d="M23.72,98.61c-.9,2.46,2.55,4.29,3.88,5.83,1.11,1.29,1.74,2.88,3,4.1a29.37,29.37,0,0,0,4.09,3.38,1.63,1.63,0,0,0,1.69,0,1.4,1.4,0,0,0,.34-.26,1.74,1.74,0,0,0,.26-2,9,9,0,0,0-2.82-3.44,23.69,23.69,0,0,1-3-3.85A8,8,0,0,0,28.24,100c-1.09-.59-2-1.41-3.07-2a1,1,0,0,0-1.45.58Z"/><path class="cls-2" d="M34.74,97.93c-2.53,2.78-5.24,5.48-7.57,8.43-1.79,2.27-4.09,4.1-5.14,6.86-.65,1.68,2.12,2.46,2.71.75.93-2.72,3.9-4,5.42-6.36,1.89-2.93,3.23-6.4,4.8-9.51.07-.14-.11-.29-.22-.17Z"/><path class="cls-2" d="M23.79,120.5c.21,2.21,2.42,3.66,4.1,4.89,2.82,2,5.67,4.06,8.37,6.25,1.07.87,2.6-.65,1.53-1.52-2.42-2-4.71-4.08-7-6.17-1.63-1.47-3.71-3.86-5.92-4.27-.48-.09-1.12.23-1.06.82Z"/><path class="cls-2" d="M25.18,134.4a46.75,46.75,0,0,0,7.23-6.63,42.63,42.63,0,0,0,3-3.28c1.2-1.5,1.75-3.37,3-4.87.25-.31.12-.92-.37-.88-2.88.25-5.26,3.36-7,5.41-2.42,2.85-5.38,5.6-7.34,8.78a1.09,1.09,0,0,0,1.48,1.47Z"/><path class="cls-2" d="M27.72,150c4.8,1.38,10.82.5,15.82.64,5.66.16,11.08-.67,16.69-1.2a1.42,1.42,0,0,0,.71-2.62,7.08,7.08,0,0,0-5.32-.79,104.12,104.12,0,0,1-11.16,1.44c-5.29.21-12.13-1.17-16.86,1.59a.52.52,0,0,0,.12.94Z"/><path class="cls-2" d="M25.65,158.51c6,.76,12.49.18,18.55.26,5.74.07,11.58.37,17.22-.85a.85.85,0,0,0,0-1.63c-6.27-1.16-12.77-.54-19.11-.27-5.37.23-11.86-.42-16.87,1.7-.44.19-.14.74.21.79Z"/><path class="cls-2" d="M30.78,166.28l.06-.09a.39.39,0,0,0,0-.39c-.58-1.06-1.89-.12-2.51.39a7.83,7.83,0,0,0-2.6,3.86c-.34,1.12-.51,2.67.49,3.52s2.72.27,3.75-.43a3.69,3.69,0,0,0,1.67-3.79c-.26-1.44-1.22-3.64-2.92-3.6s-3.22,2.16-3.66,3.58a4,4,0,0,0,1.33,4.4,3.88,3.88,0,0,0,5.2-.9,4.64,4.64,0,0,0-.6-6,2.47,2.47,0,0,0-3.82.49c-1.16,1.79-1.8,4.9.54,6.07s4.34-.87,5-2.88.15-4.64-2.24-5.06c-2.59-.46-4.56,2.9-2.41,4.72a2,2,0,0,0,2.28.29c.16-.1.86-.63.77-.57l-1.22.33h.26l-1.21-.33.21.12-.86-.85c.44.57-.09-.12.06,0l-.07.34c-.09.32.11.22.59-.29l1.14.31-.27-.16,1,1.36c-.05.2,0,.19,0,0a1.07,1.07,0,0,1,.21-.41H27.55c-.25-.23.47.44.39.42.12,0,0-.23.15-.3s.27.17.36.07c-.07.07.06-.79,0-.65a4.41,4.41,0,0,1,.46-.82q.62-.61.15-.36c-.22,0-.23.12,0,.28,0,.41.56.93.55,1.44a1.85,1.85,0,0,1-.62,1.2c-.59.56-1.67.9-1.84-.13a4.43,4.43,0,0,1,.75-2.22,6.57,6.57,0,0,1,1.42-1.73c.27-.22.58-.37.84-.59s.5-.3.25-.48a.3.3,0,0,0,.39-.1Z"/><path class="cls-2" d="M44.82,168a2.57,2.57,0,0,0-3.42.88,2.93,2.93,0,0,0,1.12,4c3.18,1.86,6.68-2.14,5.64-5.26a3.38,3.38,0,0,0-4.91-1.73,4.69,4.69,0,0,0-2.41,4.2,4.43,4.43,0,0,0,3.26,4,4.07,4.07,0,0,0,4.67-2.43,3.83,3.83,0,0,0-2.39-5.07,3.51,3.51,0,0,0-4.49,3.14c-.12,2,2.39,2.71,3.68,1.52a1.66,1.66,0,0,0,.26-.27,1.18,1.18,0,0,1-.37.19,1.06,1.06,0,0,1-1.16-.28c.29.31.21.14-.23-.49a.84.84,0,0,1,.07-.66.65.65,0,0,1,.27-.54c.28-.18.29-.19,0,0a1.13,1.13,0,0,1,.84-.14.84.84,0,0,1,.44.28c-.2-.21-.19-.19,0,0,0,.19,0,.74.12.28a.58.58,0,0,1-.1.42q.21-.33.06-.12a.32.32,0,0,1-.2.18c.23-.13.22-.12-.05,0q-1.8,0-1.95-1.2c0-.18,0-.14,0,.11a3.23,3.23,0,0,1,0,.44c0-.23,0-.22,0,0l.06-.12c-.13.22-.15.25,0,.08s.19-.13.35-.12.4.26.5.42c-.17-.28,0-.19-.06-.05s0,.09.19.06c.87-.13.92-1.42.24-1.8Z"/><path class="cls-2" d="M57.91,167.41a2.94,2.94,0,0,0-.31,4.06,3.47,3.47,0,0,0,4.45.78,4.06,4.06,0,0,0,1.78-4.47,3.59,3.59,0,0,0-5.34-2.09A5.88,5.88,0,0,0,55.67,169a3.85,3.85,0,0,0,2.16,4.52,4,4,0,0,0,4.87-1.8,5,5,0,0,0,.86-4.55,3.36,3.36,0,0,0-4-2A4,4,0,0,0,57,167.8a4,4,0,0,0,.27,3.31A3.3,3.3,0,0,0,61,172.64a2.79,2.79,0,0,0,1.9-1.9,2.69,2.69,0,0,0-.7-2.64l-.38-.29q-1.5-1.31.51,2.63l.1-.17q-1,1.48-3.24.66l-1.1-1.11a1.94,1.94,0,0,1-.28-1.45c0-.33,0-.36,0-.08s-.11.37-.16.55c-.16.54.33-.51,0-.05s.37-.37.13-.13,0,.15.83-.46a2.1,2.1,0,0,1,2.29.76,1.93,1.93,0,0,1,.38,1.11c-.1.5-.12.64-.06.41s0-.09-.12.3c-.3.54-.18.23,0,0s.63-.41,0,0c.39-.25-.18,0-.36,0a2,2,0,0,1-2.1-1.26,1.29,1.29,0,0,1,0-.8l0,.15a1.43,1.43,0,0,1,1.66-1l-.14-.05a1.21,1.21,0,0,1,.55.31l.35.59c-.07.68,0,.85.07.51a1.94,1.94,0,0,0-.89-2.18,2.05,2.05,0,0,0-2.33.3Z"/><path class="cls-2" d="M26.87,183.6a2.45,2.45,0,0,0-1,2.67,3,3,0,0,0,2.83,2.09c3,0,4.64-3.88,3.16-6.28a3.7,3.7,0,0,0-4.86-1.4,3.65,3.65,0,0,0-1.75,4,3.33,3.33,0,0,0,4.78,2,3.82,3.82,0,0,0,1.89-3.54,3.07,3.07,0,0,0-.61-1.72,2.73,2.73,0,0,0-1.48-1A3.85,3.85,0,0,0,25,184.05a3.69,3.69,0,0,0,1.48,2.87,2.91,2.91,0,0,0,4-.21,2.5,2.5,0,0,0,.38-2.91c.28.68.25.63-.08-.16a2.29,2.29,0,0,0-.48-.64c-.65-.52-.73-.57-.22-.16a1.43,1.43,0,0,1,.33.54,1.94,1.94,0,0,1-.38,2,1.72,1.72,0,0,1-.75.46q-1.7-.18-1,0l-2.1-2.75c0,.44.09-.4.15-.55A2.15,2.15,0,0,1,29,181.37l1.28.75a2.5,2.5,0,0,1,.37,2.86l-.8.8c-1.37,1-2.29.2-3-.59.55.7.61.79.18.25l-.16-.4a3,3,0,0,1,.08.32c0-.42-.06-.53-.07-.31s0,.11,0-.3a1,1,0,0,1,.23-.44c.14-.17.14-.18,0,0s-.12.14,0,0a1.23,1.23,0,0,1,1.28-.09.56.56,0,0,1,.35.27c.07.45.12.54.13.29a1.37,1.37,0,0,0-2-1.17Z"/><path class="cls-2" d="M45.65,181a2.91,2.91,0,0,0-3.22.78A2.82,2.82,0,0,0,43.92,186c2.12.64,3.89-1.28,4-3.24a3.7,3.7,0,0,0-2.79-3.84,3.85,3.85,0,0,0-4.59,2.64,3.94,3.94,0,0,0,2.81,4.71,4.11,4.11,0,0,0,4.8-3,3.13,3.13,0,0,0-1.4-3.52,3.48,3.48,0,0,0-3.42.11c-1.82,1.08-3.19,3.32-2,5.38a2.83,2.83,0,0,0,3.81,1.23A2.54,2.54,0,0,0,46.36,185a2.25,2.25,0,0,0-.58-2.1l.57,1a4.07,4.07,0,0,0-.5-1.08c-.23-.3-.26-.34-.09-.11a.78.78,0,0,1,.23.57,1.65,1.65,0,0,1-.34,1.58c.25-.26-.07.09-.17.1.08,0,.21-.13.28-.17s.57-.26.1-.07c-.23.08-.27.11-.14.06.6-.17.07-.24-1.57-.22l-1-1-.18-.41v-1.44c-.08.48.31-.47,0-.05a1.42,1.42,0,0,1,1-.64,1.49,1.49,0,0,1,1.13.22c.3.27.37.33.23.19s-.09-.07.18.23a1.06,1.06,0,0,1,.16.83,1.12,1.12,0,0,1-.18.87c-.29.35-.34.42-.16.22l-.32.24c.23-.13.15-.1-.25.09l-.42,0c.28,0,.19,0-.26-.06a1.43,1.43,0,0,1-.84-.62c-.12-.35-.15-.43-.1-.25s0,.09,0-.27c0,.2,0,.19,0,0a.82.82,0,0,1,.14-.45,1.09,1.09,0,0,1,1-.52,1.3,1.3,0,0,1,1.16.63l-.06-.11c.1.24.12.27.07.07l0-.11c.16.06-.12.48,0,.17a4.8,4.8,0,0,1,.44-.68.53.53,0,0,0-.31-.76Z"/><path class="cls-2" d="M59.48,181.35a2.39,2.39,0,1,0,.69,4.67,3,3,0,0,0,2.06-3.72,3.23,3.23,0,0,0-4-2.16,3.65,3.65,0,0,0-2.39,4.52,4.47,4.47,0,0,0,3.12,3.1,3.78,3.78,0,0,0,4.58-2.63A3.82,3.82,0,0,0,60,180.38c-2.67-.1-5,3-3.49,5.44A3.54,3.54,0,0,0,60,187.48a3.33,3.33,0,0,0,2-1,3.12,3.12,0,0,0,.77-3,2.82,2.82,0,0,0-3.47-2c-.26.1-.53.21-.79.33-.89.64-.77.62.36-.08l.77-.11h-.14l.78.1,1.56,1.63V185l0-.13a1.37,1.37,0,0,1-.59.87,1,1,0,0,1-.63.49c-.29.1-.32.12-.12.07l-.79.1a.77.77,0,0,1,.26,0l-.81-.11a2.44,2.44,0,0,1-1.51-1.56c0,.12.07.23.1.35l-.11-.8a.88.88,0,0,1,0,.23l.1-.79a2.32,2.32,0,0,1,1.53-1.44c-.38.12.54,0,.68,0,.56.08.13,0,0,0a.91.91,0,0,1,.66.39l-.14-.13c-.14-.16-.06-.06.23.29-.24-.33,0,.13.08.31a1.43,1.43,0,0,1-2.79.62,1.47,1.47,0,0,1,.38-1.34c.24-.23,1.06-.46,0-.1a1.21,1.21,0,0,1,.86-.06.74.74,0,0,1,.61.38l.07.12c.15.11-.13.25.05,0,0-.06.09-.19.13-.26a.75.75,0,0,0-.64-1.13Z"/><path class="cls-2" d="M26.88,196.37c6,.51,12.23-.84,18.3-.84s12.25,0,18.38.27c3.06.14,3.09-4.77,0-4.79a162.31,162.31,0,0,0-19.35.82c-5.77.66-12.1.64-17.58,2.7a.94.94,0,0,0,.25,1.84Z"/><path class="cls-2" d="M25,195.87a38.12,38.12,0,0,0-1.16,4.38c-.32,1.28-.71,2.35,0,3.58s3.18,1.17,3.48-.45a26.19,26.19,0,0,0,.78-7.09,1.57,1.57,0,0,0-3.06-.42Z"/><path class="cls-2" d="M36.12,195.22a12,12,0,0,0-1.72,6.89c.06,2.78,4.44,2.78,4.33,0a55.68,55.68,0,0,0-.39-6.6c-.19-1.12-1.69-1-2.22-.29Z"/><path class="cls-2" d="M47.75,193.06a16.91,16.91,0,0,0-1.39,8.38c.29,2.14,4,1.65,3.78-.51a28.38,28.38,0,0,0-1.31-7.87.57.57,0,0,0-1.08,0Z"/><path class="cls-2" d="M61.16,193.56c-.38,1.58-.47,3.29-.75,4.91a9.53,9.53,0,0,0,.33,4.94A2.26,2.26,0,0,0,62.33,205l.36.06a1.78,1.78,0,0,0,1.69-.44c1.24-1.5.72-3.68.66-5.53s.19-4.18-.84-5.92a1.68,1.68,0,0,0-3,.39Z"/><path class="cls-2" d="M26.36,219.43c5,3.15,12.56,2.11,18.26,2.12s13.27,1.06,18.44-1.41c1.19-.57.64-2.09-.32-2.49-2.71-1.13-5.35-.76-8.25-.79-3.62,0-7.24-.18-10.85-.26-5.5-.12-12.21-1.48-17.28,1.05a1,1,0,0,0,0,1.78Z"/><path class="cls-2" d="M62.7,217.53c-5.4,1.84-10.38,5.12-15.22,8.1-6,3.69-12.23,6.89-18.11,10.8a2.08,2.08,0,0,0,2.1,3.59c4-2.17,10.7-1.59,15.12-1.59,4.77,0,9.53.08,14.3.22l-1.24-3c-2.36,2.15-5.08,3.48-7.65,5.31s-5.08,3.93-7.87,5.66c-2.46,1.53-5,3-7.33,4.66-2.9,2.06-5.35,4.86-8.38,6.69a1.82,1.82,0,0,0,1.4,3.31c5.68-1.63,12.07-1.27,18-1.2,2.48,0,5,.24,7.44.29,2.84.06,6.27-1.14,9-.74,1.92.28,2.07-2.63.34-2.49-2.82.24-5.59-1.11-8.42-1.27-3.07-.17-6.21,0-9.29,0-6,0-11.6,1.21-17.52,1.88l1.28,3.08c2.89-2.27,6.52-3.59,9.54-5.71,2.54-1.78,4.9-3.79,7.37-5.65,5-3.79,10.42-6.49,14.6-11.34a1.76,1.76,0,0,0-1.23-3c-4.78.19-9.54.45-14.3.84s-11.17,1.75-15.62.21l.5,3.8c6.55-3.38,12.67-7.42,19.05-11.08,4.86-2.79,10.26-5.45,12.71-10.73.15-.33-.11-.83-.53-.68Z"/><path class="cls-2" d="M28.17,260.44c-1.91,1-1.82,4.09-1.7,5.92a2.18,2.18,0,1,0,4.3-.58c-.3-1.68.14-3.77-1-5.14a1.31,1.31,0,0,0-1.56-.2Z"/><path class="cls-2" d="M34.92,260a8,8,0,0,0-.64,3.4,12.49,12.49,0,0,0,.38,3.67c.45,1.22,2.67,1.63,2.9,0a11.35,11.35,0,0,0-1.7-7.2.52.52,0,0,0-.94.13Z"/><path class="cls-2" d="M40.65,259.71c-.82,2.49-.43,5.6-.09,8.15a3.23,3.23,0,0,0,2.21,2.9,2.69,2.69,0,0,0,2.32-.3,3,3,0,0,0,1.49-2.6c.1-2.56.33-5.71-.56-8.15a2.81,2.81,0,0,0-5.37,0Z"/><path class="cls-2" d="M51.65,260.89a15.67,15.67,0,0,1-1.15,3.4,10,10,0,0,0-.42,2.63c-.1,1.46.27,3.69,2.2,3.67,1.7,0,2.12-2,2-3.29a12.77,12.77,0,0,0-.68-2.87,12.28,12.28,0,0,1-1.26-3.54.33.33,0,0,0-.66,0Z"/><path class="cls-2" d="M58.2,258.72c-1.81,2.78-2.56,7.08-.68,10.07a3,3,0,0,0,5,0c1.69-3.12.9-7.25-1-10.07a2,2,0,0,0-3.4,0Z"/></pattern></defs><g id="Layer_2" data-name="Layer 2"><g id="Layer_1-2" data-name="Layer 1"><rect class="cls-3" width="445.8" height="354.54"/></g></g></svg>