<svg xmlns="http://www.w3.org/2000/svg" viewBox="0 0 55 54.99"><g id="Layer_2" data-name="Layer 2"><g id="Layer_1-2" data-name="Layer 1"><path d="M27.51,13.4A14.1,14.1,0,1,0,41.6,27.49,14.07,14.07,0,0,0,27.51,13.4Zm0,23.26a9.17,9.17,0,1,1,9.16-9.17,9.18,9.18,0,0,1-9.16,9.17Zm18-23.84a3.29,3.29,0,1,1-3.29-3.29A3.28,3.28,0,0,1,45.47,12.82Zm9.34,3.34c-.21-4.41-1.22-8.31-4.44-11.53S43.25.41,38.84.19,20.7-.06,16.16.19,7.86,1.41,4.63,4.62.41,11.74.19,16.14s-.25,18.15,0,22.69,1.22,8.31,4.44,11.52,7.12,4.22,11.53,4.44,18.14.26,22.68,0,8.31-1.21,11.53-4.44,4.22-7.11,4.44-11.52.25-18.13,0-22.67ZM48.94,43.7a9.28,9.28,0,0,1-5.23,5.23C40.1,50.37,31.51,50,27.51,50s-12.61.32-16.21-1.1A9.28,9.28,0,0,1,6.07,43.7C4.63,40.08,5,31.49,5,27.49s-.32-12.6,1.1-16.2A9.28,9.28,0,0,1,11.3,6.06C14.92,4.62,23.51,5,27.51,5s12.6-.32,16.2,1.11a9.28,9.28,0,0,1,5.23,5.23c1.44,3.61,1.11,12.2,1.11,16.2S50.38,40.1,48.94,43.7Z"/></g></g></svg>