<svg xmlns="http://www.w3.org/2000/svg" viewBox="0 0 54.84 44.54"><g id="Layer_2" data-name="Layer 2"><g id="Layer_1-2" data-name="Layer 1"><path d="M49.2,11.1c0,.49,0,1,0,1.46,0,14.86-11.3,32-32,32A31.78,31.78,0,0,1,0,39.49a22,22,0,0,0,2.71.14,22.51,22.51,0,0,0,14-4.8A11.27,11.27,0,0,1,6.16,27a14.67,14.67,0,0,0,2.12.17,12.07,12.07,0,0,0,3-.38,11.25,11.25,0,0,1-9-11v-.14a11.34,11.34,0,0,0,5.08,1.42,11.26,11.26,0,0,1-3.48-15A31.92,31.92,0,0,0,27,13.81a12.88,12.88,0,0,1-.28-2.57A11.25,11.25,0,0,1,46.17,3.55,22.28,22.28,0,0,0,53.3.84,11.17,11.17,0,0,1,48.36,7a22.73,22.73,0,0,0,6.48-1.74A24.31,24.31,0,0,1,49.2,11.1Z"/></g></g></svg>